<?xml version="1.0" standalone="no"?>
<!DOCTYPE svg PUBLIC "-//W3C//DTD SVG 20010904//EN"
 "http://www.w3.org/TR/2001/REC-SVG-20010904/DTD/svg10.dtd">
<svg version="1.0" xmlns="http://www.w3.org/2000/svg"
 width="330.000000pt" height="666.000000pt" viewBox="0 0 330.000000 666.000000"
 preserveAspectRatio="xMidYMid meet">

<g transform="translate(0.000000,666.000000) scale(0.100000,-0.100000)"
fill="#000000" stroke="none">
<path d="M82 6635 c-46 -20 -62 -65 -62 -170 l0 -85 775 0 775 0 0 135 0 135
-727 0 c-608 -1 -733 -3 -761 -15z"/>
<path d="M30 6115 l0 -135 775 0 775 0 0 135 0 135 -775 0 -775 0 0 -135z"/>
<path d="M20 5705 l0 -135 775 0 775 0 0 135 0 135 -775 0 -775 0 0 -135z"/>
</g>
</svg>
