<?xml version="1.0" standalone="no"?>
<!DOCTYPE svg PUBLIC "-//W3C//DTD SVG 20010904//EN"
 "http://www.w3.org/TR/2001/REC-SVG-20010904/DTD/svg10.dtd">
<svg version="1.0" xmlns="http://www.w3.org/2000/svg"
 width="2252.000000pt" height="1025.000000pt" viewBox="0 0 2252.000000 1025.000000"
 preserveAspectRatio="xMidYMid meet">

<g transform="translate(0.000000,1025.000000) scale(0.100000,-0.100000)"
fill="#000000" stroke="none">
<path d="M0 10105 l0 -145 785 0 785 0 0 145 0 145 -785 0 -785 0 0 -145z"/>
<path d="M10 9705 l0 -145 785 0 785 0 0 145 0 145 -785 0 -785 0 0 -145z"/>
<path d="M0 9295 l0 -145 785 0 785 0 0 145 0 145 -785 0 -785 0 0 -145z"/>
</g>
</svg>
