<svg xmlns="http://www.w3.org/2000/svg" xmlns:xlink="http://www.w3.org/1999/xlink" width="1920" zoomAndPan="magnify" viewBox="0 0 1440 809.999993" height="1080" preserveAspectRatio="xMidYMid meet" version="1.0"><defs><clipPath id="2ef1ec093b"><path d="M 550 9.046875 L 888 9.046875 L 888 362 L 550 362 Z M 550 9.046875 " clip-rule="nonzero"/></clipPath><clipPath id="015844bf3a"><path d="M 849 537 L 1110.511719 537 L 1110.511719 798.796875 L 849 798.796875 Z M 849 537 " clip-rule="nonzero"/></clipPath><clipPath id="c20198185c"><path d="M 327.511719 561 L 584 561 L 584 798.796875 L 327.511719 798.796875 Z M 327.511719 561 " clip-rule="nonzero"/></clipPath></defs><g clip-path="url(#2ef1ec093b)"><path fill="#8c52ff" d="M 708.789062 42.152344 L 708.789062 174.777344 C 700.050781 169.203125 689.792969 166.074219 679.054688 166.074219 C 666.589844 166.074219 654.382812 170.332031 644.636719 178.078125 C 640.210938 181.617188 639.476562 188.0625 642.996094 192.492188 C 646.519531 196.917969 652.980469 197.652344 657.410156 194.132812 C 663.617188 189.191406 671.089844 186.59375 679.039062 186.59375 C 691.230469 186.59375 702.460938 192.96875 708.769531 203.332031 L 708.769531 334.042969 C 701.179688 338.828125 692.527344 341.359375 683.449219 341.359375 C 670.625 341.359375 658.503906 336.109375 649.628906 327.238281 C 651.648438 326.964844 653.664062 326.65625 655.648438 326.246094 C 661.1875 325.101562 664.777344 319.679688 663.632812 314.125 C 662.488281 308.566406 657.066406 304.992188 651.527344 306.136719 C 647.082031 307.0625 642.5 307.523438 637.917969 307.523438 C 600.972656 307.523438 570.914062 277.464844 570.914062 240.519531 C 570.914062 214.804688 585.925781 191.054688 609.144531 179.976562 C 614.253906 177.546875 616.425781 171.425781 614 166.3125 C 611.570312 161.203125 605.449219 159.03125 600.320312 161.457031 C 593.585938 164.671875 587.378906 168.707031 581.789062 173.394531 C 579.257812 167.835938 577.921875 161.765625 577.921875 155.59375 C 577.921875 131.914062 597.191406 112.660156 620.855469 112.660156 C 628.875 112.660156 636.6875 114.9375 643.40625 119.089844 C 639.613281 122.527344 636.207031 126.441406 633.335938 130.734375 C 630.191406 135.4375 631.4375 141.8125 636.15625 144.976562 C 637.917969 146.15625 639.886719 146.703125 641.851562 146.703125 C 645.152344 146.703125 648.398438 145.113281 650.382812 142.15625 C 656.761719 132.632812 666.832031 125.945312 678.011719 123.828125 C 683.570312 122.765625 687.226562 117.398438 686.167969 111.839844 C 685.109375 106.265625 679.738281 102.625 674.183594 103.667969 C 669.992188 104.472656 665.90625 105.703125 661.992188 107.328125 C 650.570312 97.617188 635.96875 92.144531 620.855469 92.144531 C 617.179688 92.144531 613.589844 92.46875 610.082031 93.085938 C 611.382812 77.664062 622 64.839844 636.261719 60.292969 C 636.585938 65.402344 637.714844 70.378906 639.644531 75.148438 C 641.253906 79.152344 645.101562 81.5625 649.152344 81.5625 C 650.433594 81.5625 651.734375 81.320312 653 80.808594 C 658.246094 78.6875 660.777344 72.703125 658.65625 67.4375 C 657.339844 64.191406 656.675781 60.753906 656.675781 57.214844 C 656.675781 42.050781 669.019531 29.722656 684.167969 29.722656 L 685.84375 29.722656 C 695.09375 29.722656 703.675781 34.421875 708.769531 42.132812 Z M 694.769531 281.5 C 699.589844 278.527344 701.078125 272.199219 698.101562 267.378906 C 695.128906 262.558594 688.800781 261.070312 683.980469 264.042969 C 678.527344 267.414062 672.199219 269.191406 665.703125 269.207031 L 665.632812 269.207031 C 655.53125 269.207031 645.476562 265.085938 638.6875 258.164062 C 634.875 254.265625 630.378906 247.714844 630.601562 238.601562 C 630.738281 232.925781 626.257812 228.242188 620.597656 228.089844 C 614.886719 227.898438 610.238281 232.429688 610.101562 238.105469 C 609.792969 250.792969 614.734375 263 624.035156 272.507812 C 634.738281 283.449219 649.902344 289.726562 665.632812 289.726562 L 665.738281 289.726562 C 676.03125 289.707031 686.066406 286.871094 694.75 281.5 Z M 772.375 269.226562 C 765.878906 269.226562 759.550781 267.429688 754.097656 264.0625 C 749.277344 261.085938 742.949219 262.574219 739.972656 267.394531 C 737 272.21875 738.488281 278.542969 743.308594 281.519531 C 751.992188 286.886719 762.03125 289.726562 772.324219 289.742188 L 772.425781 289.742188 C 788.15625 289.742188 803.320312 283.46875 814.023438 272.523438 C 823.308594 263.019531 828.25 250.8125 827.957031 238.125 C 827.820312 232.464844 823.101562 227.917969 817.460938 228.105469 C 811.800781 228.242188 807.320312 232.945312 807.441406 238.621094 C 807.664062 247.734375 803.167969 254.28125 799.355469 258.179688 C 792.582031 265.105469 782.511719 269.226562 772.425781 269.226562 L 772.355469 269.226562 Z M 550.414062 240.535156 C 550.414062 283.996094 582.265625 320.160156 623.863281 326.910156 C 636.003906 348.316406 658.792969 361.875 683.464844 361.875 C 696.203125 361.875 708.359375 358.441406 719.046875 351.859375 C 729.734375 358.441406 741.90625 361.875 754.628906 361.875 C 779.300781 361.875 802.089844 348.316406 814.230469 326.910156 C 855.8125 320.160156 887.679688 284.015625 887.679688 240.535156 C 887.679688 221.847656 881.609375 203.964844 871.011719 189.277344 C 877.285156 179.238281 880.671875 167.5625 880.671875 155.628906 C 880.671875 132 867.695312 111.363281 848.492188 100.453125 C 848.59375 99.070312 848.664062 97.683594 848.664062 96.300781 C 848.664062 66.839844 826.609375 42.375 798.140625 38.5625 C 790.839844 21.34375 773.757812 9.238281 753.910156 9.238281 L 752.234375 9.238281 C 739.683594 9.238281 727.871094 14.144531 719.046875 22.609375 C 710.222656 14.164062 698.394531 9.238281 685.859375 9.238281 L 684.183594 9.238281 C 664.335938 9.238281 647.269531 21.34375 639.953125 38.5625 C 611.484375 42.375 589.429688 66.839844 589.429688 96.300781 C 589.429688 97.683594 589.5 99.085938 589.601562 100.453125 C 570.398438 111.378906 557.421875 132.015625 557.421875 155.628906 C 557.421875 167.5625 560.808594 179.238281 567.082031 189.277344 C 556.484375 203.964844 550.414062 221.847656 550.414062 240.535156 Z M 729.304688 174.761719 L 729.304688 42.152344 C 734.402344 34.441406 742.984375 29.738281 752.234375 29.738281 L 753.910156 29.738281 C 769.074219 29.738281 781.402344 42.066406 781.402344 57.230469 C 781.402344 60.769531 780.734375 64.207031 779.417969 67.457031 C 777.296875 72.703125 779.828125 78.6875 785.078125 80.808594 C 790.328125 82.929688 796.3125 80.398438 798.429688 75.148438 C 800.363281 70.378906 801.472656 65.402344 801.800781 60.292969 C 816.058594 64.839844 826.675781 77.679688 827.976562 93.085938 C 824.472656 92.46875 820.878906 92.144531 817.203125 92.144531 C 802.089844 92.144531 787.472656 97.617188 776.066406 107.328125 C 772.152344 105.703125 768.066406 104.472656 763.875 103.667969 C 758.304688 102.609375 752.933594 106.265625 751.890625 111.839844 C 750.832031 117.398438 754.488281 122.765625 760.046875 123.828125 C 771.230469 125.964844 781.300781 132.632812 787.675781 142.15625 C 789.660156 145.113281 792.910156 146.703125 796.207031 146.703125 C 798.175781 146.703125 800.15625 146.140625 801.902344 144.976562 C 806.605469 141.8125 807.867188 135.453125 804.722656 130.734375 C 801.832031 126.425781 798.449219 122.527344 794.636719 119.089844 C 801.355469 114.9375 809.167969 112.660156 817.203125 112.660156 C 840.882812 112.660156 860.136719 131.914062 860.136719 155.59375 C 860.136719 161.765625 858.785156 167.835938 856.273438 173.394531 C 850.679688 168.707031 844.476562 164.671875 837.738281 161.457031 C 832.625 159.03125 826.503906 161.183594 824.058594 166.3125 C 821.632812 171.425781 823.804688 177.546875 828.914062 179.976562 C 852.132812 191.039062 867.144531 214.804688 867.144531 240.519531 C 867.144531 277.464844 837.089844 307.523438 800.140625 307.523438 C 795.558594 307.523438 790.976562 307.0625 786.53125 306.136719 C 780.992188 304.992188 775.554688 308.566406 774.425781 314.125 C 773.28125 319.679688 776.855469 325.101562 782.410156 326.246094 C 784.394531 326.65625 786.410156 326.964844 788.429688 327.238281 C 779.554688 336.109375 767.433594 341.359375 754.609375 341.359375 C 745.53125 341.359375 736.863281 338.828125 729.289062 334.042969 L 729.289062 203.332031 C 735.597656 192.96875 746.832031 186.59375 759.019531 186.59375 C 766.972656 186.59375 774.460938 189.207031 780.648438 194.132812 C 785.078125 197.652344 791.539062 196.9375 795.0625 192.492188 C 798.585938 188.0625 797.851562 181.597656 793.421875 178.078125 C 783.691406 170.332031 771.46875 166.074219 759.003906 166.074219 C 748.265625 166.074219 738.007812 169.203125 729.269531 174.777344 Z M 729.304688 174.761719 " fill-opacity="1" fill-rule="evenodd"/></g><path fill="#8c52ff" d="M 468.328125 474.824219 L 468.328125 157.953125 L 516.679688 157.953125 C 522.339844 157.953125 526.9375 153.355469 526.9375 147.695312 C 526.9375 142.035156 522.339844 137.4375 516.679688 137.4375 L 458.070312 137.4375 C 452.410156 137.4375 447.808594 142.035156 447.808594 147.695312 L 447.808594 474.824219 L 442.082031 469.097656 C 438.082031 465.09375 431.585938 465.09375 427.566406 469.097656 C 423.566406 473.097656 423.566406 479.59375 427.566406 483.59375 L 450.800781 506.847656 C 452.734375 508.78125 455.332031 509.855469 458.050781 509.855469 C 460.769531 509.855469 463.386719 508.78125 465.300781 506.847656 L 488.535156 483.59375 C 492.539062 479.59375 492.539062 473.097656 488.535156 469.097656 C 484.535156 465.09375 478.039062 465.09375 474.019531 469.097656 L 468.292969 474.824219 Z M 468.328125 474.824219 " fill-opacity="1" fill-rule="evenodd"/><path fill="#8c52ff" d="M 949.523438 445.6875 C 945.523438 449.691406 945.523438 456.1875 949.523438 460.203125 L 972.757812 483.441406 C 974.671875 485.371094 977.289062 486.449219 980.007812 486.449219 C 982.726562 486.449219 985.34375 485.371094 987.257812 483.441406 L 1010.492188 460.203125 C 1014.492188 456.203125 1014.492188 449.691406 1010.492188 445.6875 C 1006.492188 441.6875 999.996094 441.6875 995.976562 445.6875 L 990.25 451.433594 L 990.25 147.695312 C 990.25 142.035156 985.648438 137.4375 979.992188 137.4375 L 921.378906 137.4375 C 915.71875 137.4375 911.121094 142.035156 911.121094 147.695312 C 911.121094 153.355469 915.71875 157.953125 921.378906 157.953125 L 969.730469 157.953125 L 969.730469 451.433594 L 964.003906 445.6875 C 960.003906 441.6875 953.507812 441.6875 949.488281 445.6875 Z M 949.523438 445.6875 " fill-opacity="1" fill-rule="evenodd"/><g clip-path="url(#015844bf3a)"><path fill="#8c52ff" d="M 992.695312 537.742188 L 967.339844 537.742188 L 967.339844 555.695312 C 967.339844 560.585938 963.902344 564.792969 959.113281 565.75 C 945.933594 568.414062 933.535156 573.546875 922.285156 581.015625 C 918.21875 583.71875 912.8125 583.171875 909.359375 579.71875 L 896.65625 567.015625 L 878.722656 584.949219 L 891.425781 597.652344 C 894.878906 601.105469 895.425781 606.507812 892.722656 610.578125 C 885.253906 621.847656 880.125 634.222656 877.457031 647.40625 C 876.480469 652.195312 872.277344 655.628906 867.402344 655.628906 L 849.449219 655.628906 L 849.449219 680.988281 L 867.402344 680.988281 C 872.277344 680.988281 876.480469 684.421875 877.457031 689.210938 C 880.125 702.390625 885.269531 714.789062 892.722656 726.039062 C 895.425781 730.109375 894.878906 735.511719 891.425781 738.945312 L 878.722656 751.667969 L 896.65625 769.585938 L 909.359375 756.882812 C 912.8125 753.429688 918.21875 752.898438 922.285156 755.582031 C 933.535156 763.054688 945.933594 768.183594 959.113281 770.851562 C 963.902344 771.824219 967.339844 776.03125 967.339844 780.90625 L 967.339844 798.855469 L 992.695312 798.855469 L 992.695312 780.90625 C 992.695312 776.03125 996.128906 771.824219 1000.917969 770.851562 C 1014.101562 768.183594 1026.496094 763.039062 1037.746094 755.582031 C 1041.816406 752.898438 1047.21875 753.429688 1050.671875 756.882812 L 1063.375 769.585938 L 1081.3125 751.667969 L 1068.605469 738.945312 C 1065.152344 735.511719 1064.605469 730.109375 1067.308594 726.039062 C 1074.78125 714.769531 1079.910156 702.375 1082.574219 689.210938 C 1083.550781 684.421875 1087.757812 680.988281 1092.628906 680.988281 L 1110.582031 680.988281 L 1110.582031 655.628906 L 1092.628906 655.628906 C 1087.757812 655.628906 1083.550781 652.195312 1082.574219 647.40625 C 1079.910156 634.222656 1074.761719 621.828125 1067.308594 610.578125 C 1064.605469 606.507812 1065.152344 601.105469 1068.605469 597.652344 L 1081.3125 584.949219 L 1063.375 567.015625 L 1050.671875 579.71875 C 1047.21875 583.171875 1041.816406 583.71875 1037.746094 581.015625 C 1026.496094 573.5625 1014.101562 568.414062 1000.917969 565.75 C 996.128906 564.773438 992.695312 560.566406 992.695312 555.695312 Z M 980.023438 587.222656 C 1024.734375 587.222656 1061.101562 623.589844 1061.101562 668.300781 C 1061.101562 713.011719 1024.734375 749.375 980.023438 749.375 C 935.316406 749.375 898.949219 713.011719 898.949219 668.300781 C 898.949219 623.589844 935.316406 587.222656 980.023438 587.222656 Z M 980.023438 587.222656 " fill-opacity="1" fill-rule="evenodd"/></g><path fill="#8c52ff" d="M 797.59375 630.738281 L 774.359375 607.5 C 770.355469 603.5 763.859375 603.5 759.84375 607.5 C 755.839844 611.5 755.839844 618 759.84375 622 L 766.320312 628.480469 L 669.550781 628.480469 L 676.03125 622 C 680.03125 618 680.03125 611.484375 676.03125 607.5 C 672.027344 603.5 665.53125 603.5 661.511719 607.5 L 638.277344 630.738281 C 636.347656 632.667969 635.269531 635.265625 635.269531 637.984375 C 635.269531 640.703125 636.347656 643.320312 638.277344 645.234375 L 661.511719 668.488281 C 663.515625 670.488281 666.148438 671.496094 668.761719 671.496094 C 671.378906 671.496094 674.011719 670.488281 676.011719 668.488281 C 680.011719 664.488281 680.011719 657.988281 676.011719 653.988281 L 671.019531 648.996094 L 764.816406 648.996094 L 759.824219 653.988281 C 755.824219 657.988281 755.824219 664.503906 759.824219 668.488281 C 761.824219 670.488281 764.457031 671.496094 767.074219 671.496094 C 769.691406 671.496094 772.324219 670.488281 774.324219 668.488281 L 797.558594 645.234375 C 799.472656 643.320312 800.566406 640.703125 800.566406 637.984375 C 800.566406 635.265625 799.492188 632.652344 797.558594 630.738281 Z M 797.59375 630.738281 " fill-opacity="1" fill-rule="evenodd"/><g clip-path="url(#c20198185c)"><path fill="#8c52ff" d="M 583.957031 716.925781 L 583.957031 584.453125 C 583.957031 571.597656 573.511719 561.148438 560.65625 561.148438 L 350.816406 561.148438 C 337.957031 561.148438 327.511719 571.597656 327.511719 584.453125 L 327.511719 716.925781 C 327.511719 729.78125 337.976562 740.246094 350.816406 740.246094 L 429.34375 740.246094 C 432.082031 740.246094 434.714844 741.339844 436.628906 743.289062 L 490.863281 798.105469 L 490.863281 750.503906 C 490.863281 744.828125 495.460938 740.246094 501.121094 740.246094 L 560.65625 740.246094 C 573.511719 740.246094 583.957031 729.78125 583.957031 716.925781 Z M 544.480469 635.386719 C 544.480469 629.710938 549.078125 625.128906 554.738281 625.128906 C 560.398438 625.128906 564.996094 629.726562 564.996094 635.386719 L 564.996094 665.992188 C 564.996094 671.652344 560.398438 676.25 554.738281 676.25 C 549.078125 676.25 544.480469 671.652344 544.480469 665.992188 Z M 511.480469 609.003906 C 511.480469 603.347656 516.082031 598.746094 521.742188 598.746094 C 527.398438 598.746094 532 603.347656 532 609.003906 L 532 692.375 C 532 698.050781 527.398438 702.632812 521.742188 702.632812 C 516.082031 702.632812 511.480469 698.050781 511.480469 692.375 Z M 478.484375 621.554688 C 478.484375 615.894531 483.082031 611.296875 488.742188 611.296875 C 494.402344 611.296875 499 615.894531 499 621.554688 L 499 679.824219 C 499 685.484375 494.402344 690.082031 488.742188 690.082031 C 483.082031 690.082031 478.484375 685.484375 478.484375 679.824219 Z M 455.742188 585.820312 C 461.402344 585.820312 466.003906 590.421875 466.003906 596.078125 L 466.003906 705.316406 C 466.003906 710.976562 461.402344 715.574219 455.742188 715.574219 C 450.085938 715.574219 445.484375 710.976562 445.484375 705.316406 L 445.484375 596.078125 C 445.484375 590.421875 450.085938 585.820312 455.742188 585.820312 Z M 422.746094 611.296875 C 428.40625 611.296875 433.003906 615.894531 433.003906 621.554688 L 433.003906 679.824219 C 433.003906 685.484375 428.40625 690.082031 422.746094 690.082031 C 417.085938 690.082031 412.488281 685.484375 412.488281 679.824219 L 412.488281 621.554688 C 412.488281 615.894531 417.085938 611.296875 422.746094 611.296875 Z M 389.746094 598.746094 C 395.40625 598.746094 400.003906 603.347656 400.003906 609.003906 L 400.003906 692.375 C 400.003906 698.050781 395.40625 702.632812 389.746094 702.632812 C 384.085938 702.632812 379.488281 698.050781 379.488281 692.375 L 379.488281 609.003906 C 379.488281 603.347656 384.085938 598.746094 389.746094 598.746094 Z M 356.75 625.128906 C 362.40625 625.128906 367.007812 629.726562 367.007812 635.386719 L 367.007812 665.992188 C 367.007812 671.652344 362.40625 676.25 356.75 676.25 C 351.089844 676.25 346.488281 671.652344 346.488281 665.992188 L 346.488281 635.386719 C 346.488281 629.710938 351.089844 625.128906 356.75 625.128906 Z M 356.75 625.128906 " fill-opacity="1" fill-rule="evenodd"/></g></svg>