<svg xmlns="http://www.w3.org/2000/svg" xmlns:xlink="http://www.w3.org/1999/xlink" width="1920" zoomAndPan="magnify" viewBox="0 0 1440 809.999993" height="1080" preserveAspectRatio="xMidYMid meet" version="1.0"><defs><clipPath id="bff3e85e0b"><path d="M 333.9375 12.796875 L 1017.1875 12.796875 L 1017.1875 801.796875 L 333.9375 801.796875 Z M 333.9375 12.796875 " clip-rule="nonzero"/></clipPath></defs><g clip-path="url(#bff3e85e0b)"><path fill="#8c52ff" d="M 648.058594 775.304688 C 641.957031 745.347656 615.398438 722.734375 583.664062 722.734375 L 583.664062 709.589844 C 583.664062 687.847656 565.976562 670.160156 544.234375 670.160156 L 544.234375 639.269531 C 619.5 621.421875 675.667969 553.652344 675.667969 473.007812 L 675.667969 446.71875 C 675.667969 439.460938 669.78125 433.574219 662.523438 433.574219 L 623.09375 433.574219 L 623.09375 327.792969 C 625.578125 328.195312 628.1875 328.429688 630.972656 328.429688 C 656.214844 328.429688 668.59375 310.742188 678.542969 296.53125 C 687.789062 283.324219 693.554688 275.855469 704.578125 275.855469 C 715.597656 275.855469 721.363281 283.324219 730.609375 296.53125 C 740.550781 310.742188 752.929688 328.429688 778.175781 328.429688 C 803.417969 328.429688 815.796875 310.742188 825.746094 296.539062 C 834.992188 283.324219 840.761719 275.855469 851.78125 275.855469 C 862.808594 275.855469 868.578125 283.332031 877.824219 296.539062 C 887.773438 310.746094 900.152344 328.429688 925.394531 328.429688 C 932.652344 328.429688 938.535156 322.542969 938.535156 315.285156 C 938.535156 308.027344 932.652344 302.140625 925.394531 302.140625 C 914.367188 302.140625 908.605469 294.671875 899.355469 281.457031 C 889.410156 267.253906 877.03125 249.566406 851.78125 249.566406 C 826.542969 249.566406 814.160156 267.25 804.214844 281.457031 C 794.964844 294.664062 789.195312 302.140625 778.175781 302.140625 C 767.160156 302.140625 761.390625 294.671875 752.140625 281.464844 C 742.195312 267.253906 729.820312 249.566406 704.578125 249.566406 C 679.332031 249.566406 666.953125 267.253906 657.011719 281.464844 C 647.761719 294.671875 641.992188 302.140625 630.972656 302.140625 C 627.214844 302.140625 624.070312 301.25 621.179688 299.574219 C 614.121094 270.898438 588.199219 249.566406 557.375 249.566406 L 491.660156 249.566406 L 491.660156 39.273438 L 807.101562 39.273438 L 807.101562 210.136719 C 807.101562 217.394531 812.988281 223.28125 820.246094 223.28125 L 991.109375 223.28125 L 991.109375 775.304688 Z M 388.761719 775.304688 C 394.1875 760.007812 408.804688 749.019531 425.941406 749.019531 L 583.664062 749.019531 C 600.796875 749.019531 615.417969 760.007812 620.839844 775.304688 Z M 452.226562 709.589844 C 452.226562 702.34375 458.125 696.445312 465.371094 696.445312 L 544.234375 696.445312 C 551.476562 696.445312 557.375 702.34375 557.375 709.589844 L 557.375 722.734375 L 452.226562 722.734375 Z M 491.660156 643.371094 C 495.996094 643.703125 500.378906 643.871094 504.800781 643.871094 C 509.222656 643.871094 513.605469 643.703125 517.945312 643.371094 L 517.945312 670.160156 L 491.660156 670.160156 Z M 360.222656 473.007812 L 360.222656 459.863281 L 386.511719 459.863281 L 386.511719 473.007812 C 386.511719 538.230469 439.578125 591.296875 504.800781 591.296875 C 570.023438 591.296875 623.09375 538.230469 623.09375 473.007812 L 623.09375 459.863281 L 649.378906 459.863281 L 649.378906 473.007812 C 649.378906 552.726562 584.523438 617.585938 504.800781 617.585938 C 425.082031 617.585938 360.222656 552.726562 360.222656 473.007812 Z M 412.796875 459.863281 L 596.804688 459.863281 L 596.804688 473.007812 C 596.804688 523.738281 555.535156 565.011719 504.800781 565.011719 C 454.070312 565.011719 412.796875 523.738281 412.796875 473.007812 Z M 452.226562 275.855469 L 557.375 275.855469 C 579.121094 275.855469 596.804688 293.542969 596.804688 315.285156 L 596.804688 328.429688 L 583.664062 328.429688 C 576.40625 328.429688 570.519531 334.3125 570.519531 341.570312 C 570.519531 348.832031 576.40625 354.714844 583.664062 354.714844 L 596.804688 354.714844 L 596.804688 381.003906 L 583.664062 381.003906 C 576.40625 381.003906 570.519531 386.886719 570.519531 394.144531 C 570.519531 401.402344 576.40625 407.289062 583.664062 407.289062 L 596.804688 407.289062 L 596.804688 433.574219 L 412.796875 433.574219 L 412.796875 407.289062 L 425.941406 407.289062 C 433.199219 407.289062 439.085938 401.402344 439.085938 394.144531 C 439.085938 386.886719 433.199219 381.003906 425.941406 381.003906 L 412.796875 381.003906 L 412.796875 354.714844 L 425.941406 354.714844 C 433.199219 354.714844 439.085938 348.832031 439.085938 341.570312 C 439.085938 334.3125 433.199219 328.429688 425.941406 328.429688 L 412.796875 328.429688 L 412.796875 315.285156 C 412.796875 293.542969 430.484375 275.855469 452.226562 275.855469 Z M 833.390625 57.859375 L 972.523438 196.992188 L 833.390625 196.992188 Z M 1013.546875 200.84375 L 829.539062 16.835938 C 827.074219 14.371094 823.730469 12.984375 820.246094 12.984375 L 478.515625 12.984375 C 471.257812 12.984375 465.371094 18.871094 465.371094 26.128906 L 465.371094 249.566406 L 452.226562 249.566406 C 415.992188 249.566406 386.511719 279.050781 386.511719 315.285156 L 386.511719 433.574219 L 347.082031 433.574219 C 339.820312 433.574219 333.9375 439.460938 333.9375 446.71875 L 333.9375 473.007812 C 333.9375 553.652344 390.105469 621.421875 465.371094 639.269531 L 465.371094 670.160156 C 443.628906 670.160156 425.941406 687.847656 425.941406 709.589844 L 425.941406 722.734375 C 389.707031 722.734375 360.222656 752.214844 360.222656 788.449219 C 360.222656 795.707031 366.109375 801.59375 373.367188 801.59375 L 1004.253906 801.59375 C 1011.511719 801.59375 1017.398438 795.707031 1017.398438 788.449219 L 1017.398438 210.136719 C 1017.398438 206.652344 1016.011719 203.308594 1013.546875 200.84375 " fill-opacity="1" fill-rule="nonzero"/></g><path fill="#8c52ff" d="M 728.242188 196.992188 L 570.519531 196.992188 L 570.519531 118.132812 L 728.242188 118.132812 Z M 741.382812 91.84375 L 557.375 91.84375 C 550.117188 91.84375 544.234375 97.730469 544.234375 104.988281 L 544.234375 210.136719 C 544.234375 217.394531 550.117188 223.28125 557.375 223.28125 L 741.382812 223.28125 C 748.644531 223.28125 754.527344 217.394531 754.527344 210.136719 L 754.527344 104.988281 C 754.527344 97.730469 748.644531 91.84375 741.382812 91.84375 " fill-opacity="1" fill-rule="nonzero"/><path fill="#8c52ff" d="M 780.816406 696.445312 L 728.242188 696.445312 L 728.242188 617.585938 L 780.816406 617.585938 Z M 793.957031 591.296875 L 715.097656 591.296875 C 707.839844 591.296875 701.953125 597.183594 701.953125 604.441406 L 701.953125 709.589844 C 701.953125 716.847656 707.839844 722.734375 715.097656 722.734375 L 793.957031 722.734375 C 801.21875 722.734375 807.101562 716.847656 807.101562 709.589844 L 807.101562 604.441406 C 807.101562 597.183594 801.21875 591.296875 793.957031 591.296875 " fill-opacity="1" fill-rule="nonzero"/><path fill="#8c52ff" d="M 912.25 696.445312 L 859.675781 696.445312 L 859.675781 617.585938 L 912.25 617.585938 Z M 925.394531 591.296875 L 846.53125 591.296875 C 839.273438 591.296875 833.390625 597.183594 833.390625 604.441406 L 833.390625 709.589844 C 833.390625 716.847656 839.273438 722.734375 846.53125 722.734375 L 925.394531 722.734375 C 932.652344 722.734375 938.535156 716.847656 938.535156 709.589844 L 938.535156 604.441406 C 938.535156 597.183594 932.652344 591.296875 925.394531 591.296875 " fill-opacity="1" fill-rule="nonzero"/><path fill="#8c52ff" d="M 478.515625 354.714844 L 531.089844 354.714844 C 538.347656 354.714844 544.234375 348.832031 544.234375 341.570312 C 544.234375 334.3125 538.347656 328.429688 531.089844 328.429688 L 478.515625 328.429688 C 471.257812 328.429688 465.371094 334.3125 465.371094 341.570312 C 465.371094 348.832031 471.257812 354.714844 478.515625 354.714844 " fill-opacity="1" fill-rule="nonzero"/><path fill="#8c52ff" d="M 741.382812 407.289062 L 793.957031 407.289062 C 801.21875 407.289062 807.101562 401.402344 807.101562 394.144531 C 807.101562 386.886719 801.21875 381.003906 793.957031 381.003906 L 741.382812 381.003906 C 734.125 381.003906 728.242188 386.886719 728.242188 394.144531 C 728.242188 401.402344 734.125 407.289062 741.382812 407.289062 " fill-opacity="1" fill-rule="nonzero"/><path fill="#8c52ff" d="M 925.394531 381.003906 L 846.53125 381.003906 C 839.273438 381.003906 833.390625 386.886719 833.390625 394.144531 C 833.390625 401.402344 839.273438 407.289062 846.53125 407.289062 L 925.394531 407.289062 C 932.652344 407.289062 938.535156 401.402344 938.535156 394.144531 C 938.535156 386.886719 932.652344 381.003906 925.394531 381.003906 " fill-opacity="1" fill-rule="nonzero"/><path fill="#8c52ff" d="M 925.394531 433.574219 L 715.097656 433.574219 C 707.839844 433.574219 701.953125 439.460938 701.953125 446.71875 C 701.953125 453.976562 707.839844 459.863281 715.097656 459.863281 L 925.394531 459.863281 C 932.652344 459.863281 938.535156 453.976562 938.535156 446.71875 C 938.535156 439.460938 932.652344 433.574219 925.394531 433.574219 " fill-opacity="1" fill-rule="nonzero"/><path fill="#8c52ff" d="M 925.394531 486.148438 L 872.820312 486.148438 C 865.5625 486.148438 859.675781 492.035156 859.675781 499.292969 C 859.675781 506.550781 865.5625 512.4375 872.820312 512.4375 L 925.394531 512.4375 C 932.652344 512.4375 938.535156 506.550781 938.535156 499.292969 C 938.535156 492.035156 932.652344 486.148438 925.394531 486.148438 " fill-opacity="1" fill-rule="nonzero"/><path fill="#8c52ff" d="M 925.394531 538.722656 L 715.097656 538.722656 C 707.839844 538.722656 701.953125 544.609375 701.953125 551.867188 C 701.953125 559.125 707.839844 565.011719 715.097656 565.011719 L 925.394531 565.011719 C 932.652344 565.011719 938.535156 559.125 938.535156 551.867188 C 938.535156 544.609375 932.652344 538.722656 925.394531 538.722656 " fill-opacity="1" fill-rule="nonzero"/><path fill="#8c52ff" d="M 715.097656 512.4375 L 820.246094 512.4375 C 827.503906 512.4375 833.390625 506.550781 833.390625 499.292969 C 833.390625 492.035156 827.503906 486.148438 820.246094 486.148438 L 715.097656 486.148438 C 707.839844 486.148438 701.953125 492.035156 701.953125 499.292969 C 701.953125 506.550781 707.839844 512.4375 715.097656 512.4375 " fill-opacity="1" fill-rule="nonzero"/><path fill="#8c52ff" d="M 478.515625 407.289062 L 531.089844 407.289062 C 538.347656 407.289062 544.234375 401.402344 544.234375 394.144531 C 544.234375 386.886719 538.347656 381.003906 531.089844 381.003906 L 478.515625 381.003906 C 471.257812 381.003906 465.371094 386.886719 465.371094 394.144531 C 465.371094 401.402344 471.257812 407.289062 478.515625 407.289062 " fill-opacity="1" fill-rule="nonzero"/></svg>