<svg xmlns="http://www.w3.org/2000/svg" xmlns:xlink="http://www.w3.org/1999/xlink" width="1920" zoomAndPan="magnify" viewBox="0 0 1440 809.999993" height="1080" preserveAspectRatio="xMidYMid meet" version="1.0"><defs><clipPath id="c44d018ab5"><path d="M 467 9.832031 L 728 9.832031 L 728 370 L 467 370 Z M 467 9.832031 " clip-rule="nonzero"/></clipPath><clipPath id="41df93ebcc"><path d="M 324.832031 226 L 586 226 L 586 587 L 324.832031 587 Z M 324.832031 226 " clip-rule="nonzero"/></clipPath></defs><path fill="#8c52ff" d="M 665.640625 617.09375 L 529.316406 617.09375 C 522.472656 617.09375 516.921875 622.640625 516.921875 629.488281 C 516.921875 636.332031 522.472656 641.878906 529.316406 641.878906 L 665.640625 641.878906 C 672.484375 641.878906 678.035156 636.332031 678.035156 629.488281 C 678.035156 622.640625 672.484375 617.09375 665.640625 617.09375 Z M 665.640625 617.09375 " fill-opacity="1" fill-rule="nonzero"/><path fill="#8c52ff" d="M 665.640625 666.664062 L 529.316406 666.664062 C 522.472656 666.664062 516.921875 672.214844 516.921875 679.058594 C 516.921875 685.902344 522.472656 691.453125 529.316406 691.453125 L 665.640625 691.453125 C 672.484375 691.453125 678.035156 685.902344 678.035156 679.058594 C 678.035156 672.214844 672.484375 666.664062 665.640625 666.664062 Z M 665.640625 666.664062 " fill-opacity="1" fill-rule="nonzero"/><path fill="#8c52ff" d="M 529.316406 158.546875 L 665.640625 158.546875 C 672.484375 158.546875 678.035156 153 678.035156 146.15625 C 678.035156 139.308594 672.484375 133.761719 665.640625 133.761719 L 529.316406 133.761719 C 522.472656 133.761719 516.921875 139.308594 516.921875 146.15625 C 516.921875 153 522.472656 158.546875 529.316406 158.546875 Z M 529.316406 158.546875 " fill-opacity="1" fill-rule="nonzero"/><path fill="#8c52ff" d="M 665.640625 567.519531 L 569.5 567.519531 L 544.714844 592.308594 L 665.640625 592.308594 C 672.484375 592.308594 678.035156 586.757812 678.035156 579.914062 C 678.035156 573.070312 672.484375 567.519531 665.640625 567.519531 Z M 665.640625 567.519531 " fill-opacity="1" fill-rule="nonzero"/><path fill="#8c52ff" d="M 690.425781 443.589844 L 609.871094 443.589844 L 609.871094 468.375 L 690.425781 468.375 C 697.261719 468.375 702.820312 473.9375 702.820312 480.769531 L 702.820312 517.949219 L 608.527344 517.949219 C 606.453125 526.859375 601.980469 535.046875 595.351562 541.667969 L 594.285156 542.734375 L 702.820312 542.734375 L 702.820312 716.238281 L 665.640625 716.238281 C 651.972656 716.238281 640.855469 727.355469 640.855469 741.023438 L 640.855469 778.203125 L 504.53125 778.203125 C 497.695312 778.203125 492.136719 772.644531 492.136719 765.8125 L 492.136719 610.898438 L 467.351562 610.898438 L 467.351562 765.8125 C 467.351562 786.3125 484.027344 802.992188 504.53125 802.992188 L 648.113281 802.992188 C 654.734375 802.992188 660.960938 800.414062 665.640625 795.730469 L 720.34375 741.023438 C 725.027344 736.339844 727.605469 730.121094 727.605469 723.5 L 727.605469 480.769531 C 727.605469 460.265625 710.929688 443.589844 690.425781 443.589844 Z M 665.640625 760.675781 L 665.640625 741.023438 L 685.292969 741.023438 Z M 665.640625 760.675781 " fill-opacity="1" fill-rule="nonzero"/><g clip-path="url(#c44d018ab5)"><path fill="#8c52ff" d="M 492.136719 108.976562 L 702.820312 108.976562 L 702.820312 282.480469 L 665.640625 282.480469 C 651.972656 282.480469 640.855469 293.59375 640.855469 307.265625 L 640.855469 344.445312 L 609.871094 344.445312 L 609.871094 369.230469 L 648.113281 369.230469 C 654.734375 369.230469 660.960938 366.652344 665.640625 361.96875 L 720.34375 307.265625 C 725.027344 302.582031 727.605469 296.359375 727.605469 289.742188 L 727.605469 47.007812 C 727.605469 26.507812 710.929688 9.832031 690.425781 9.832031 L 504.53125 9.832031 C 484.027344 9.832031 467.351562 26.507812 467.351562 47.007812 L 467.351562 201.921875 L 492.136719 201.921875 Z M 665.640625 326.917969 L 665.640625 307.265625 L 685.292969 307.265625 Z M 492.136719 47.007812 C 492.136719 40.175781 497.695312 34.617188 504.53125 34.617188 L 690.425781 34.617188 C 697.261719 34.617188 702.820312 40.175781 702.820312 47.007812 L 702.820312 84.1875 L 492.136719 84.1875 Z M 492.136719 47.007812 " fill-opacity="1" fill-rule="nonzero"/></g><path fill="#8c52ff" d="M 518.644531 201.921875 L 547.90625 201.921875 C 557.527344 201.921875 566.605469 204.191406 574.738281 208.121094 L 665.640625 208.121094 C 672.484375 208.121094 678.035156 202.570312 678.035156 195.726562 C 678.035156 188.882812 672.484375 183.332031 665.640625 183.332031 L 529.316406 183.332031 C 522.472656 183.332031 516.921875 188.882812 516.921875 195.726562 C 516.921875 197.996094 517.578125 200.09375 518.644531 201.921875 Z M 518.644531 201.921875 " fill-opacity="1" fill-rule="nonzero"/><path fill="#8c52ff" d="M 665.640625 257.691406 C 672.484375 257.691406 678.035156 252.144531 678.035156 245.300781 C 678.035156 238.457031 672.484375 232.90625 665.640625 232.90625 L 601.488281 232.90625 C 605.804688 240.34375 608.664062 248.722656 609.558594 257.691406 Z M 665.640625 257.691406 " fill-opacity="1" fill-rule="nonzero"/><g clip-path="url(#41df93ebcc)"><path fill="#8c52ff" d="M 523.121094 578.847656 L 577.824219 524.144531 C 582.507812 519.460938 585.085938 513.242188 585.085938 506.621094 L 585.085938 263.890625 C 585.085938 243.386719 568.410156 226.710938 547.90625 226.710938 L 362.007812 226.710938 C 341.507812 226.710938 324.832031 243.386719 324.832031 263.890625 L 324.832031 548.929688 C 324.832031 569.433594 341.507812 586.109375 362.007812 586.109375 L 505.59375 586.109375 C 512.210938 586.109375 518.441406 583.53125 523.121094 578.847656 Z M 523.121094 543.796875 L 523.121094 524.144531 L 542.773438 524.144531 Z M 349.617188 263.890625 C 349.617188 257.058594 355.175781 251.496094 362.007812 251.496094 L 547.90625 251.496094 C 554.742188 251.496094 560.300781 257.058594 560.300781 263.890625 L 560.300781 301.070312 L 349.617188 301.070312 Z M 498.332031 561.324219 L 362.007812 561.324219 C 355.175781 561.324219 349.617188 555.761719 349.617188 548.929688 L 349.617188 325.855469 L 560.300781 325.855469 L 560.300781 499.359375 L 523.121094 499.359375 C 509.453125 499.359375 498.332031 510.476562 498.332031 524.144531 Z M 498.332031 561.324219 " fill-opacity="1" fill-rule="nonzero"/></g><path fill="#8c52ff" d="M 386.796875 375.425781 L 523.121094 375.425781 C 529.964844 375.425781 535.511719 369.878906 535.511719 363.035156 C 535.511719 356.191406 529.964844 350.640625 523.121094 350.640625 L 386.796875 350.640625 C 379.953125 350.640625 374.402344 356.191406 374.402344 363.035156 C 374.402344 369.878906 379.953125 375.425781 386.796875 375.425781 Z M 386.796875 375.425781 " fill-opacity="1" fill-rule="nonzero"/><path fill="#8c52ff" d="M 386.796875 425 L 523.121094 425 C 529.964844 425 535.511719 419.449219 535.511719 412.605469 C 535.511719 405.761719 529.964844 400.214844 523.121094 400.214844 L 386.796875 400.214844 C 379.953125 400.214844 374.402344 405.761719 374.402344 412.605469 C 374.402344 419.449219 379.953125 425 386.796875 425 Z M 386.796875 425 " fill-opacity="1" fill-rule="nonzero"/><path fill="#8c52ff" d="M 535.511719 462.179688 C 535.511719 455.335938 529.964844 449.785156 523.121094 449.785156 L 386.796875 449.785156 C 379.953125 449.785156 374.402344 455.335938 374.402344 462.179688 C 374.402344 469.023438 379.953125 474.574219 386.796875 474.574219 L 523.121094 474.574219 C 529.964844 474.574219 535.511719 469.023438 535.511719 462.179688 Z M 535.511719 462.179688 " fill-opacity="1" fill-rule="nonzero"/><path fill="#8c52ff" d="M 1080.8125 226.710938 L 894.914062 226.710938 C 874.414062 226.710938 857.734375 243.386719 857.734375 263.890625 L 857.734375 548.929688 C 857.734375 569.433594 874.414062 586.109375 894.914062 586.109375 L 1038.496094 586.109375 C 1045.117188 586.109375 1051.34375 583.53125 1056.023438 578.847656 L 1110.730469 524.144531 C 1115.414062 519.460938 1117.992188 513.242188 1117.992188 506.621094 L 1117.992188 263.890625 C 1117.992188 243.386719 1101.3125 226.710938 1080.8125 226.710938 Z M 1056.023438 543.796875 L 1056.023438 524.144531 L 1075.679688 524.144531 Z M 1093.203125 499.359375 L 1056.023438 499.359375 C 1042.359375 499.359375 1031.238281 510.476562 1031.238281 524.144531 L 1031.238281 561.324219 L 894.914062 561.324219 C 888.078125 561.324219 882.519531 555.761719 882.519531 548.929688 L 882.519531 325.855469 L 1093.203125 325.855469 Z M 1093.203125 301.070312 L 882.519531 301.070312 L 882.519531 263.890625 C 882.519531 257.058594 888.078125 251.496094 894.914062 251.496094 L 1080.8125 251.496094 C 1087.644531 251.496094 1093.203125 257.058594 1093.203125 263.890625 Z M 1093.203125 301.070312 " fill-opacity="1" fill-rule="nonzero"/><path fill="#8c52ff" d="M 919.699219 375.425781 L 1056.023438 375.425781 C 1062.867188 375.425781 1068.417969 369.878906 1068.417969 363.035156 C 1068.417969 356.191406 1062.867188 350.640625 1056.023438 350.640625 L 919.699219 350.640625 C 912.855469 350.640625 907.308594 356.191406 907.308594 363.035156 C 907.308594 369.878906 912.855469 375.425781 919.699219 375.425781 Z M 919.699219 375.425781 " fill-opacity="1" fill-rule="nonzero"/><path fill="#8c52ff" d="M 919.699219 425 L 1056.023438 425 C 1062.867188 425 1068.417969 419.449219 1068.417969 412.605469 C 1068.417969 405.761719 1062.867188 400.214844 1056.023438 400.214844 L 919.699219 400.214844 C 912.855469 400.214844 907.308594 405.761719 907.308594 412.605469 C 907.308594 419.449219 912.855469 425 919.699219 425 Z M 919.699219 425 " fill-opacity="1" fill-rule="nonzero"/><path fill="#8c52ff" d="M 919.699219 474.574219 L 1056.023438 474.574219 C 1062.867188 474.574219 1068.417969 469.023438 1068.417969 462.179688 C 1068.417969 455.335938 1062.867188 449.785156 1056.023438 449.785156 L 919.699219 449.785156 C 912.855469 449.785156 907.308594 455.335938 907.308594 462.179688 C 907.308594 469.023438 912.855469 474.574219 919.699219 474.574219 Z M 919.699219 474.574219 " fill-opacity="1" fill-rule="nonzero"/><path fill="#8c52ff" d="M 804.53125 367.730469 C 799.691406 362.890625 791.84375 362.890625 787.003906 367.730469 C 783.246094 371.492188 782.445312 377.054688 784.527344 381.625 L 740 381.625 C 733.15625 381.625 727.605469 387.171875 727.605469 394.015625 C 727.605469 400.859375 733.15625 406.410156 740 406.410156 L 784.527344 406.410156 C 782.445312 410.980469 783.246094 416.542969 787.003906 420.304688 C 789.425781 422.726562 792.597656 423.933594 795.769531 423.933594 C 798.941406 423.933594 802.109375 422.726562 804.53125 420.304688 L 822.058594 402.78125 C 824.382812 400.457031 825.691406 397.304688 825.691406 394.015625 C 825.691406 390.730469 824.382812 387.578125 822.058594 385.253906 Z M 804.53125 367.730469 " fill-opacity="1" fill-rule="nonzero"/></svg>