<svg xmlns="http://www.w3.org/2000/svg" xmlns:xlink="http://www.w3.org/1999/xlink" width="1920" zoomAndPan="magnify" viewBox="0 0 1440 809.999993" height="1080" preserveAspectRatio="xMidYMid meet" version="1.0"><defs><clipPath id="895b738ac2"><path d="M 323 454 L 674 454 L 674 800.71875 L 323 800.71875 Z M 323 454 " clip-rule="nonzero"/></clipPath></defs><path fill="#8c52ff" d="M 832.109375 454.203125 L 1032.398438 454.15625 C 1070.894531 453.976562 1109.800781 462.308594 1115.730469 509.742188 C 1117.125 520.914062 1116.183594 533.222656 1116.175781 544.5 L 1116.167969 696.863281 C 1116.164062 724.242188 1120.058594 750.699219 1101.90625 773.589844 C 1088.679688 790.269531 1073.03125 797.410156 1052.371094 799.792969 L 856.234375 799.808594 C 845.261719 799.816406 833.835938 800.515625 823.023438 798.410156 C 761.824219 786.476562 768.535156 729.578125 768.550781 683.847656 L 768.511719 539.257812 C 768.511719 529.171875 767.644531 518.152344 769.449219 508.242188 C 775.191406 476.699219 800.246094 455.550781 832.109375 454.203125 Z M 1048.777344 790.683594 C 1103.585938 786.453125 1107.03125 746.851562 1107.042969 702.460938 L 1107.042969 559.261719 C 1107.0625 521.625 1111.582031 472.585938 1060.613281 463.964844 C 1052.179688 462.539062 1043.101562 463.191406 1034.558594 463.210938 L 836.125 463.273438 C 785.898438 465.558594 778.089844 498.085938 778.089844 540.910156 L 778.101562 684.773438 C 778.074219 726.671875 770.804688 780.527344 827.722656 789.953125 C 836.339844 791.382812 845.539062 790.746094 854.257812 790.730469 Z M 1048.777344 790.683594 " fill-opacity="1" fill-rule="nonzero"/><path fill="#8c52ff" d="M 863.117188 491.648438 C 878.367188 490.804688 894.160156 491.621094 909.464844 491.628906 L 1002.914062 491.648438 C 1008.269531 495.398438 1034.039062 520.59375 1035.203125 525.566406 C 1036.785156 532.347656 1035.765625 541.210938 1035.765625 548.25 L 1035.765625 683.632812 C 1035.761719 702.375 1043.375 744.296875 1021.070312 749.519531 C 1015.167969 750.113281 1008.722656 749.566406 1002.757812 749.558594 L 902.230469 749.539062 C 882.414062 749.558594 849.402344 756.234375 848.511719 727.246094 C 848.070312 712.917969 848.535156 698.4375 848.550781 684.101562 L 848.546875 540.238281 C 848.542969 522.972656 843.003906 499.511719 863.117188 491.648438 Z M 1026.628906 527.265625 C 997.167969 528.078125 999.199219 529.679688 999.3125 500.898438 L 865.738281 500.898438 C 852.816406 505.042969 858.15625 541.40625 858.179688 554.046875 L 858.179688 693.757812 C 858.175781 704.761719 857.785156 715.867188 858.152344 726.859375 C 858.722656 744.027344 872.171875 741.539062 884.902344 741.519531 L 913.863281 741.507812 C 948.707031 741.496094 983.613281 741.03125 1018.453125 741.503906 C 1030.714844 737.070312 1026.6875 715.101562 1026.660156 704.824219 Z M 1007.835938 518.207031 C 1010.707031 518.226562 1013.601562 518.324219 1016.46875 518.207031 C 1015.160156 514.75 1011.363281 509.992188 1007.835938 508.632812 C 1007.457031 511.96875 1007.472656 514.859375 1007.835938 518.207031 Z M 1007.835938 518.207031 " fill-opacity="1" fill-rule="nonzero"/><path fill="#8c52ff" d="M 924.1875 674.988281 C 940.363281 677.789062 899.167969 711.949219 896.796875 713.148438 C 892.347656 711.675781 887.820312 705.636719 884.59375 702.269531 C 881.429688 699.191406 874.648438 694.617188 880.824219 690.847656 C 887.238281 690.242188 892.363281 698.828125 897.023438 702.269531 C 906.203125 694.195312 914.273438 681.554688 924.1875 674.988281 Z M 924.1875 674.988281 " fill-opacity="1" fill-rule="nonzero"/><path fill="#8c52ff" d="M 924.1875 614.128906 C 926.542969 615.277344 927.894531 616 928.601562 618.789062 C 927.640625 622.210938 899.617188 654.507812 894.761719 654.128906 C 890.707031 651.753906 887.5625 647.375 884.59375 643.808594 C 873.410156 632.957031 880.175781 627.335938 895.789062 643.808594 C 901.078125 636.988281 917.425781 618.398438 924.1875 614.128906 Z M 924.1875 614.128906 " fill-opacity="1" fill-rule="nonzero"/><path fill="#8c52ff" d="M 924.1875 556.292969 C 938.753906 559.734375 899.71875 592.246094 895.789062 595.066406 C 891.441406 592.667969 888.089844 589.3125 884.59375 585.847656 C 882.285156 583.425781 875.476562 576.171875 881.796875 574.328125 C 886.917969 575.222656 891.464844 580.402344 895.789062 583.273438 C 905.359375 574.703125 913.207031 562.957031 924.1875 556.292969 Z M 924.1875 556.292969 " fill-opacity="1" fill-rule="nonzero"/><path fill="#8c52ff" d="M 947.558594 627.152344 C 955.1875 627.140625 1022.792969 621.519531 1005.871094 635.601562 L 966.832031 635.65625 C 962.507812 635.660156 933.625 637.378906 947.558594 627.152344 Z M 947.558594 627.152344 " fill-opacity="1" fill-rule="nonzero"/><path fill="#8c52ff" d="M 976.503906 680.304688 C 982.179688 680.324219 1002.617188 679.023438 1006.574219 681.195312 C 1016.574219 686.675781 1001.992188 688.601562 978.136719 688.664062 C 971.402344 688.625 953.089844 690.0625 947.613281 688.195312 C 945.769531 687.566406 942.671875 684.9375 944.585938 682.855469 C 948.164062 678.96875 970.382812 680.292969 976.503906 680.304688 Z M 976.503906 680.304688 " fill-opacity="1" fill-rule="nonzero"/><path fill="#8c52ff" d="M 947.558594 546.25 C 956.070312 545.800781 1004.296875 544.582031 1007.722656 548.613281 C 1008.820312 551.8125 1007.890625 553.398438 1004.8125 554.578125 C 971.214844 555.601562 929.160156 556.460938 947.558594 546.25 Z M 947.558594 546.25 " fill-opacity="1" fill-rule="nonzero"/><path fill="#8c52ff" d="M 963.121094 600.398438 L 988.785156 600.460938 C 1015.644531 600.3125 1017.980469 608.914062 990.699219 608.75 C 983.574219 608.738281 938.765625 614.167969 945.554688 602.257812 C 949.789062 599.371094 957.980469 600.464844 963.121094 600.398438 Z M 963.121094 600.398438 " fill-opacity="1" fill-rule="nonzero"/><path fill="#8c52ff" d="M 947.558594 707.03125 C 957.96875 706.847656 1001.71875 705.132812 1008.058594 709.683594 C 1009.402344 712.523438 1008.347656 713.984375 1005.871094 715.339844 L 968.117188 715.402344 C 963.699219 715.40625 942.066406 718.546875 944.582031 709.640625 C 945.003906 708.15625 946.34375 707.726562 947.558594 707.03125 Z M 947.558594 707.03125 " fill-opacity="1" fill-rule="nonzero"/><path fill="#8c52ff" d="M 947.558594 573.183594 C 957.007812 573.113281 1012.46875 569.289062 1007.679688 579.300781 C 1006.941406 580.84375 1006.339844 580.820312 1004.8125 581.289062 L 967.257812 581.347656 C 961.242188 581.355469 954.6875 581.863281 948.734375 581.160156 C 942.882812 580.472656 942.769531 575.441406 947.558594 573.183594 Z M 947.558594 573.183594 " fill-opacity="1" fill-rule="nonzero"/><path fill="#8c52ff" d="M 945.785156 654.105469 C 954.449219 654.109375 1021.25 647.863281 1005.871094 662.070312 C 994.695312 662.335938 954.457031 663.632812 945.332031 661.539062 C 943.222656 658.851562 943.675781 656.742188 945.785156 654.105469 Z M 945.785156 654.105469 " fill-opacity="1" fill-rule="nonzero"/><path fill="#8c52ff" d="M 906.792969 12.875 L 1003.441406 12.871094 C 1034.5625 12.84375 1070.375 7.207031 1094.804688 31.007812 C 1109.324219 45.148438 1115.898438 61.105469 1116.140625 81.253906 C 1116.734375 131.117188 1116.179688 181.058594 1116.175781 230.925781 L 1116.164062 274.074219 C 1116.144531 344.507812 1088.757812 357.855469 1022.746094 357.828125 L 976.503906 357.792969 L 880.285156 357.789062 C 861.707031 357.792969 833.402344 359.628906 815.789062 355.425781 C 786.53125 348.4375 768.738281 320.988281 768.566406 291.675781 L 768.550781 93.609375 C 768.546875 60.207031 773.054688 28.597656 811.511719 16.234375 C 827.175781 11.199219 845.636719 12.847656 861.914062 12.847656 Z M 1054.199219 348.476562 C 1108.671875 340.675781 1107.035156 300.203125 1107.042969 257.148438 L 1107.058594 109.699219 C 1107.066406 96.957031 1108.09375 83.320312 1106.210938 70.722656 C 1099.5 25.851562 1060.984375 21.960938 1025.835938 21.945312 L 829.75 21.960938 C 779.125 27.003906 778.042969 64.347656 778.070312 102.058594 L 778.085938 254.378906 C 778.050781 294.007812 772.003906 340.285156 826.269531 347.917969 C 835.140625 349.164062 844.671875 348.535156 853.636719 348.523438 Z M 1054.199219 348.476562 " fill-opacity="1" fill-rule="nonzero"/><path fill="#8c52ff" d="M 837.359375 202.601562 L 871.210938 202.550781 C 920.253906 202.394531 916.082031 214.46875 916.335938 259.992188 C 916.460938 282.527344 921.332031 312.386719 889.667969 314.761719 L 854.28125 314.816406 C 807.183594 314.871094 809.683594 302.722656 809.765625 258.90625 C 809.8125 234.902344 804.398438 205.4375 837.359375 202.601562 Z M 891.183594 305.574219 C 899.800781 303.769531 905.742188 299.210938 906.628906 290.273438 C 907.398438 282.492188 907.402344 229.25 905.957031 224.164062 C 901.507812 208.464844 883.449219 211.640625 870.816406 211.648438 L 836.125 211.714844 C 826.089844 213.683594 820.769531 217.878906 819.679688 228.070312 C 818.234375 241.613281 813.730469 295.0625 827.96875 303.296875 C 835.46875 307.636719 879.746094 305.398438 891.183594 305.574219 Z M 891.183594 305.574219 " fill-opacity="1" fill-rule="nonzero"/><path fill="#8c52ff" d="M 884.59375 230.359375 C 902.34375 231.925781 872.921875 254.625 869.378906 258.089844 C 873.105469 261.984375 888.03125 275.496094 889.550781 279.144531 C 890.679688 281.859375 890.132812 285.902344 886.59375 286.207031 C 882.292969 286.578125 867.980469 269.558594 863.78125 266.140625 L 863.117188 265.605469 C 856.023438 270.84375 849.4375 277.511719 843.351562 283.871094 C 841.867188 285.011719 840.519531 285.808594 838.683594 284.695312 C 830.328125 279.640625 853.28125 261.226562 856.902344 258.089844 C 854.183594 256.125 825.222656 232.117188 840.660156 231.535156 C 843.933594 231.410156 859.527344 247.988281 863.117188 251.253906 C 870.773438 244.976562 877.589844 237.359375 884.59375 230.359375 Z M 884.59375 230.359375 " fill-opacity="1" fill-rule="nonzero"/><path fill="#8c52ff" d="M 832.109375 58.542969 C 845.480469 58.394531 858.871094 58.511719 872.242188 58.515625 C 887.480469 58.519531 909.09375 55.183594 914.96875 73.96875 C 917.203125 81.125 916.953125 133.421875 916.132812 143.152344 C 915.164062 154.601562 906.628906 162.914062 895.789062 166.285156 L 857.789062 166.316406 C 801.242188 166.347656 809.753906 151.472656 809.785156 104.375 C 809.792969 84.886719 806.117188 62.121094 832.109375 58.542969 Z M 865.738281 157.085938 C 905.945312 157.328125 906.785156 158.628906 906.816406 121.105469 C 906.863281 63.535156 914.03125 68.203125 858.175781 67.917969 C 822.148438 67.808594 819.34375 63.03125 819.339844 98.5 L 819.386719 137.253906 C 819.640625 164.042969 844.425781 157.082031 865.738281 157.085938 Z M 865.738281 157.085938 " fill-opacity="1" fill-rule="nonzero"/><path fill="#8c52ff" d="M 889.667969 89.601562 C 893.796875 91.421875 894.457031 93.546875 891.644531 97.160156 C 887.476562 102.507812 861.085938 131.101562 856.378906 131.671875 C 850.625 128.960938 845.449219 122.605469 840.945312 118.152344 C 838.066406 115.160156 833.25 108.753906 839.15625 106.191406 C 845.59375 106.8125 852.59375 116.109375 856.902344 120.472656 C 864.78125 111.921875 879.992188 94.574219 889.667969 89.601562 Z M 889.667969 89.601562 " fill-opacity="1" fill-rule="nonzero"/><path fill="#8c52ff" d="M 942.0625 62.796875 L 1027.578125 62.769531 C 1034.085938 62.769531 1089.632812 57.058594 1075.296875 71.960938 C 1074.886719 71.984375 1074.472656 72 1074.0625 72 L 957.351562 72.019531 C 954.367188 72.023438 927.460938 73 942.0625 62.796875 Z M 942.0625 62.796875 " fill-opacity="1" fill-rule="nonzero"/><path fill="#8c52ff" d="M 942.0625 294.78125 L 1025.03125 294.78125 C 1040.015625 294.78125 1055.132812 294.300781 1070.097656 294.769531 C 1076.277344 294.964844 1079.617188 300.03125 1073.929688 303.765625 C 1048.671875 305.820312 1020.011719 303.726562 994.367188 303.738281 L 962.179688 303.832031 C 959.589844 303.84375 926.6875 305.398438 942.0625 294.78125 Z M 942.0625 294.78125 " fill-opacity="1" fill-rule="nonzero"/><path fill="#8c52ff" d="M 1026.628906 206.332031 C 1035.515625 206.300781 1070.96875 204.605469 1076.53125 208.445312 C 1083.871094 213.511719 1071.152344 215.460938 1047.699219 215.464844 L 990.699219 215.464844 L 959.152344 215.535156 C 954.835938 215.5625 939.683594 218.203125 939.023438 211.835938 C 938.082031 202.757812 968.316406 206.308594 975.160156 206.308594 Z M 1026.628906 206.332031 " fill-opacity="1" fill-rule="nonzero"/><path fill="#8c52ff" d="M 943.902344 152.453125 L 1031.546875 152.433594 C 1039.6875 152.433594 1069.996094 151.253906 1076.269531 153.421875 C 1080.804688 154.992188 1077.039062 160.351562 1073.929688 161.304688 L 984.28125 161.308594 C 971.589844 161.320312 952.042969 162.59375 940.28125 160.574219 C 936.308594 157.121094 940.167969 153.339844 943.902344 152.453125 Z M 943.902344 152.453125 " fill-opacity="1" fill-rule="nonzero"/><path fill="#8c52ff" d="M 942.0625 91.925781 C 952.527344 91.914062 1026.09375 85.0625 1012.179688 101.105469 C 999.957031 101.644531 923.222656 107.21875 942.0625 91.925781 Z M 942.0625 91.925781 " fill-opacity="1" fill-rule="nonzero"/><path fill="#8c52ff" d="M 939.835938 236.480469 C 961.757812 236.476562 983.941406 235.726562 1005.824219 236.476562 C 1012.394531 236.699219 1015.984375 238.277344 1012.179688 245.035156 C 999.464844 247.152344 983.800781 245.03125 970.734375 245.054688 C 961.574219 245.074219 934.125 250.707031 939.835938 236.480469 Z M 939.835938 236.480469 " fill-opacity="1" fill-rule="nonzero"/><path fill="#8c52ff" d="M 1031.632812 91.925781 C 1035.242188 91.917969 1095 86.859375 1075.296875 101.105469 C 1066.980469 101.996094 1014.390625 104.765625 1031.632812 91.925781 Z M 1031.632812 91.925781 " fill-opacity="1" fill-rule="nonzero"/><path fill="#8c52ff" d="M 1029.890625 236.480469 C 1034.941406 236.464844 1088.242188 231.542969 1075.296875 245.035156 C 1070.34375 245.878906 1020.289062 251.476562 1029.890625 236.480469 Z M 1029.890625 236.480469 " fill-opacity="1" fill-rule="nonzero"/><path fill="#8c52ff" d="M 942.0625 122.179688 C 945.875 122.191406 995.386719 117.710938 978.136719 131.789062 C 974.425781 131.808594 926.480469 135.890625 942.0625 122.179688 Z M 942.0625 122.179688 " fill-opacity="1" fill-rule="nonzero"/><path fill="#8c52ff" d="M 942.0625 265.605469 C 943.507812 265.667969 996.457031 262.347656 979.644531 274.378906 C 971.105469 275.011719 951.125 275.316406 943.109375 274.347656 C 937.738281 273.703125 938.039062 267.800781 942.0625 265.605469 Z M 942.0625 265.605469 " fill-opacity="1" fill-rule="nonzero"/><path fill="#8c52ff" d="M 997.648438 122.179688 C 1001.707031 122.058594 1028.570312 121.421875 1014.84375 131.789062 C 1008.683594 132.511719 984.347656 131.527344 997.648438 122.179688 Z M 997.648438 122.179688 " fill-opacity="1" fill-rule="nonzero"/><path fill="#8c52ff" d="M 999.3125 265.605469 C 1005.246094 265.355469 1027.683594 267.449219 1012.179688 274.378906 C 996.570312 276.484375 986.636719 269.519531 999.3125 265.605469 Z M 999.3125 265.605469 " fill-opacity="1" fill-rule="nonzero"/><path fill="#8c52ff" d="M 1033.164062 265.605469 C 1042.078125 264.28125 1048.019531 272.402344 1038.015625 274.378906 C 1029.269531 275.453125 1023.515625 269.351562 1033.164062 265.605469 Z M 1033.164062 265.605469 " fill-opacity="1" fill-rule="nonzero"/><path fill="#8c52ff" d="M 1031.632812 122.179688 C 1038.546875 121.53125 1048.019531 123.878906 1040.09375 131.789062 C 1033.1875 132.808594 1024.96875 128.921875 1031.632812 122.179688 Z M 1031.632812 122.179688 " fill-opacity="1" fill-rule="nonzero"/><path fill="#8c52ff" d="M 494.398438 504.964844 C 507.011719 503.5 513.023438 510.269531 517.628906 521.402344 C 568.910156 521.316406 562.140625 511.496094 561.964844 558.460938 C 571.320312 558.449219 627.246094 557.5 630.34375 559.523438 C 634.359375 570.101562 632.082031 594.625 632.078125 606.332031 L 632.105469 715.535156 C 632.136719 761.960938 617.074219 753.464844 577.878906 753.464844 L 500.703125 753.429688 L 426.917969 753.414062 C 404.183594 753.429688 363.261719 759.570312 361.777344 725.300781 C 361.414062 716.886719 361.828125 708.296875 361.835938 699.863281 L 361.855469 596.1875 C 361.855469 587.796875 359.816406 567.40625 363.425781 560.046875 C 369.421875 557.019531 423.082031 558.484375 433.960938 558.460938 C 434.078125 511.261719 428.132812 521.460938 478.488281 521.402344 C 481.332031 512.773438 485.03125 507.320312 494.398438 504.964844 Z M 377.816406 739.777344 C 383.816406 734.949219 407.558594 707.652344 410.476562 716.820312 C 412.835938 724.246094 392.449219 739.425781 387.980469 744.433594 L 607.277344 744.433594 C 603.015625 740.140625 584.179688 723.242188 584.308594 717.617188 C 584.394531 713.703125 588.855469 714.375 591.214844 715.792969 C 598.191406 719.976562 604.214844 728.824219 610.007812 734.660156 C 612.625 737.28125 615.121094 739.527344 618.289062 741.503906 C 619.984375 740.417969 621.609375 739.417969 623.039062 737.992188 C 623.859375 723.523438 623.039062 708.621094 623.03125 694.105469 L 623.015625 614.347656 C 623.015625 600.648438 622.703125 586.871094 623.039062 573.183594 C 612.207031 579.605469 602.109375 587.226562 591.742188 594.363281 L 541.039062 629.070312 C 487.671875 666.015625 491.597656 654.664062 439.667969 618.945312 C 433.039062 614.390625 375.777344 573.835938 371.4375 573.183594 C 370.617188 579.800781 371.375 586.808594 371.40625 593.484375 L 371.417969 694.660156 C 371.410156 708.84375 367.417969 728.4375 377.816406 739.777344 Z M 494.398438 513.957031 C 483.351562 521.140625 485.519531 537.175781 500.703125 535.550781 C 513.566406 529.472656 509.757812 511.804688 494.398438 513.957031 Z M 478.488281 530.644531 C 467.527344 530.597656 456.03125 529.820312 445.125 530.644531 L 444.261719 531.125 C 442.453125 538.679688 443.144531 550.496094 443.441406 558.460938 C 479.867188 558.558594 516.445312 559.148438 552.851562 558.460938 L 552.851562 530.644531 C 541.152344 530.65625 529.3125 531.039062 517.628906 530.644531 C 506.769531 547.917969 488.941406 551.105469 478.488281 530.644531 Z M 613.890625 567.789062 L 383.089844 567.789062 C 393.828125 576.472656 405.355469 584.085938 416.734375 591.890625 L 463.113281 623.339844 C 498.308594 646.824219 494.058594 650.839844 533.578125 622.960938 C 545.558594 614.511719 557.628906 606.167969 569.777344 597.964844 C 584.367188 587.726562 598.960938 577.53125 613.890625 567.789062 Z M 613.890625 567.789062 " fill-opacity="1" fill-rule="nonzero"/><path fill="#8c52ff" d="M 393.324219 12.875 L 588.058594 12.851562 C 597.5 12.851562 607.21875 12.460938 616.621094 13.355469 C 646.011719 16.148438 669.414062 42.761719 672.570312 71.359375 C 673.382812 78.734375 673.699219 136.972656 671.847656 141.621094 C 665.746094 148.339844 663.636719 137.859375 663.503906 133.058594 C 662.023438 79.433594 674.085938 22.9375 599.410156 22.007812 C 548.683594 21.375 497.886719 21.964844 447.152344 21.964844 L 405.140625 21.90625 C 363.949219 21.808594 333.835938 31.28125 333.726562 81.933594 L 333.710938 275.386719 C 333.738281 310.074219 342.933594 338.605469 382.496094 347.511719 C 393.074219 349.894531 405.695312 348.515625 416.53125 348.503906 L 475.972656 348.476562 L 570.621094 348.480469 C 584.558594 348.484375 604.777344 349.789062 618.011719 347.855469 C 669.433594 340.339844 663.550781 291.21875 663.550781 253.898438 C 663.550781 244.5625 661.5 166.28125 665.632812 161.988281 C 674.992188 152.253906 672.925781 185.710938 672.925781 193.039062 L 672.964844 278.320312 C 672.964844 288.042969 673.648438 298.460938 671.53125 307.988281 C 658.953125 364.503906 607.351562 357.816406 564.371094 357.8125 L 419.519531 357.808594 C 405.957031 357.808594 391.792969 358.660156 378.449219 355.929688 C 317.730469 343.5 324.050781 282.558594 324.082031 236.753906 L 324.074219 97.109375 C 324.023438 47.125 337.289062 13.375 393.324219 12.875 Z M 393.324219 12.875 " fill-opacity="1" fill-rule="nonzero"/><g clip-path="url(#895b738ac2)"><path fill="#8c52ff" d="M 404.453125 454.203125 L 589.699219 454.175781 C 599.914062 454.167969 610.59375 453.597656 620.667969 455.523438 C 680.019531 466.882812 672.945312 524.730469 672.945312 569.175781 L 672.9375 715.535156 C 672.933594 725.980469 673.761719 737.464844 671.714844 747.722656 C 665.332031 779.738281 636.007812 799.460938 604.421875 799.785156 C 554.125 800.292969 503.777344 799.820312 453.476562 799.808594 L 411.261719 799.796875 C 399.890625 799.796875 387.644531 800.589844 376.492188 798.21875 C 349.347656 792.449219 324.578125 765.1875 323.398438 737.195312 C 323.132812 730.875 324.015625 724.328125 324.054688 717.960938 L 324.09375 680.304688 L 332.132812 680.304688 L 332.046875 715.246094 C 331.945312 737.710938 333.023438 756.261719 349.957031 773.140625 C 370.253906 793.375 392.972656 790.664062 419.417969 790.652344 L 470.039062 790.683594 L 562.472656 790.699219 C 608.402344 790.691406 662.488281 793.695312 663.507812 731.015625 C 664.324219 680.886719 663.546875 630.613281 663.546875 580.472656 L 663.578125 535.894531 C 663.585938 527.617188 664.292969 518.375 662.933594 510.214844 C 657.863281 479.800781 631.566406 463.507812 602.066406 463.273438 L 409.710938 463.265625 C 398.992188 463.273438 387.011719 462.554688 376.488281 464.699219 C 326.0625 474.976562 332.132812 525.382812 332.128906 563.179688 L 332.132812 657.582031 C 329.394531 657.765625 326.828125 657.757812 324.09375 657.582031 C 323.199219 652.875 323.953125 647.34375 324.019531 642.546875 C 324.5625 602.964844 325.027344 563.164062 324.078125 523.605469 C 323.578125 502.976562 325.511719 489.761719 341.914062 473.441406 C 360.398438 455.050781 379.890625 454.160156 404.453125 454.203125 Z M 404.453125 454.203125 " fill-opacity="1" fill-rule="nonzero"/></g><path fill="#8c52ff" d="M 412.601562 198.539062 C 492.554688 190.527344 498.304688 314.527344 424.476562 314.761719 C 410.757812 318.039062 394.882812 312.347656 383.953125 304.101562 C 341.394531 271.992188 361.378906 204.902344 412.601562 198.539062 Z M 424.476562 305.574219 C 477.230469 304.363281 488.066406 219.777344 424.875 207.980469 C 422.039062 207.449219 418.121094 207.328125 415.480469 206.332031 C 336.390625 225.160156 375.179688 320.78125 424.476562 305.574219 Z M 424.476562 305.574219 " fill-opacity="1" fill-rule="nonzero"/><path fill="#8c52ff" d="M 445.125 239.105469 C 464.828125 239.007812 417.671875 276.957031 412.601562 279.847656 C 405.789062 275.867188 399.351562 269.253906 393.324219 264.089844 C 390.289062 261.589844 386.679688 259.078125 387.734375 254.71875 C 394.1875 247.59375 406.953125 264.007812 411.921875 267.632812 L 412.601562 268.125 C 424.117188 259.402344 433.328125 247.132812 445.125 239.105469 Z M 445.125 239.105469 " fill-opacity="1" fill-rule="nonzero"/><path fill="#8c52ff" d="M 415.480469 54.972656 C 490.425781 51.433594 501.945312 159.265625 424.476562 168.34375 C 348.226562 172.316406 338.953125 61.925781 415.480469 54.972656 Z M 427.539062 158.738281 C 471.203125 149.84375 485.027344 96.699219 446.085938 71.613281 C 435.128906 64.558594 424.894531 64.773438 412.601562 62.796875 C 345.898438 81.425781 366.535156 165.304688 427.539062 158.738281 Z M 427.539062 158.738281 " fill-opacity="1" fill-rule="nonzero"/><path fill="#8c52ff" d="M 445.125 93.039062 C 464.855469 98.179688 417.292969 131.546875 414.765625 132.710938 C 411.539062 132.101562 397.980469 117.691406 394.402344 114.390625 C 392.46875 112.496094 384.507812 103.09375 392.117188 102.875 C 397.859375 102.714844 410.96875 117.671875 415.480469 122.179688 C 425.792969 112.941406 435.382812 102.855469 445.125 93.039062 Z M 445.125 93.039062 " fill-opacity="1" fill-rule="nonzero"/><path fill="#8c52ff" d="M 627.902344 62.796875 C 631.222656 63.238281 635.816406 63.609375 636.3125 67.882812 C 637.160156 75.210938 605.519531 71.949219 598.976562 71.949219 L 508.558594 71.960938 C 503.191406 72.832031 494.308594 72.292969 500.386719 64.789062 C 510.980469 60.042969 536.753906 62.816406 548.699219 62.8125 Z M 627.902344 62.796875 " fill-opacity="1" fill-rule="nonzero"/><path fill="#8c52ff" d="M 504.285156 206.332031 C 513.8125 205.78125 523.636719 206.289062 533.195312 206.296875 L 589.289062 206.375 C 596.488281 206.414062 641.140625 202.375 636.214844 213.121094 C 635.421875 214.863281 634.632812 214.863281 632.996094 215.464844 L 519.269531 215.488281 C 513.660156 215.488281 485.578125 214.777344 504.285156 206.332031 Z M 504.285156 206.332031 " fill-opacity="1" fill-rule="nonzero"/><path fill="#8c52ff" d="M 504.285156 152.453125 L 596.890625 152.457031 C 603.746094 152.457031 626.035156 151.523438 631.113281 152.59375 C 637.582031 153.957031 638.59375 159.675781 632.074219 161.304688 C 619.132812 161.308594 505.035156 162.183594 501.386719 160.691406 C 496.566406 158.71875 499.929688 153.550781 504.285156 152.453125 Z M 504.285156 152.453125 " fill-opacity="1" fill-rule="nonzero"/><path fill="#8c52ff" d="M 508.558594 294.78125 L 620.574219 294.804688 C 624.941406 294.800781 630.613281 293.585938 634.625 295.609375 C 639.699219 301.234375 632.226562 303.554688 627.902344 303.765625 L 550.1875 303.769531 C 542.378906 303.773438 500.183594 306.589844 499.671875 300.167969 C 499.257812 295.027344 504.9375 294.761719 508.558594 294.78125 Z M 508.558594 294.78125 " fill-opacity="1" fill-rule="nonzero"/><path fill="#8c52ff" d="M 504.285156 93.039062 C 513.546875 93.046875 555.582031 91.855469 559.773438 93.472656 C 564.101562 95.140625 563.195312 100.542969 558.679688 101.105469 C 551.445312 101.089844 508.460938 102.746094 504.035156 101.765625 C 497.453125 100.308594 498.40625 94.199219 504.285156 93.039062 Z M 504.285156 93.039062 " fill-opacity="1" fill-rule="nonzero"/><path fill="#8c52ff" d="M 504.285156 236.480469 L 540.890625 236.445312 C 546.785156 236.433594 553.238281 235.804688 559.070312 236.617188 C 565.066406 237.449219 563.605469 243.847656 558.679688 245.035156 C 547.726562 244.433594 510.242188 246.535156 503.167969 244.445312 C 496.464844 242.46875 498.097656 236.773438 504.285156 236.480469 Z M 504.285156 236.480469 " fill-opacity="1" fill-rule="nonzero"/><path fill="#8c52ff" d="M 583.910156 93.039062 C 591.074219 92.984375 631.410156 90.851562 635.621094 95.121094 C 636.945312 98.179688 635.777344 99.875 632.996094 101.105469 C 623.183594 102.3125 597.539062 101.96875 586.050781 101.765625 C 579.75 101.65625 578.199219 96.371094 583.910156 93.039062 Z M 583.910156 93.039062 " fill-opacity="1" fill-rule="nonzero"/><path fill="#8c52ff" d="M 546.667969 122.179688 C 556.351562 122.417969 615.761719 119.515625 592.976562 131.789062 C 585.417969 131.75 548.269531 134.242188 543.769531 129.496094 C 542.476562 126.316406 543.824219 123.832031 546.667969 122.179688 Z M 546.667969 122.179688 " fill-opacity="1" fill-rule="nonzero"/><path fill="#8c52ff" d="M 583.910156 236.480469 C 598.933594 236.511719 614.660156 235.445312 629.613281 236.457031 C 635.660156 236.863281 639.382812 242.09375 632.996094 245.035156 C 625.839844 245.007812 584.984375 247.226562 581.128906 243.175781 C 579.898438 240.105469 581.28125 238.046875 583.910156 236.480469 Z M 583.910156 236.480469 " fill-opacity="1" fill-rule="nonzero"/><path fill="#8c52ff" d="M 546.667969 265.605469 C 556.125 265.601562 605.988281 258.757812 594.792969 274.378906 C 591.558594 274.929688 531.3125 280.402344 546.667969 265.605469 Z M 546.667969 265.605469 " fill-opacity="1" fill-rule="nonzero"/><path fill="#8c52ff" d="M 510.453125 122.179688 C 515.105469 122.136719 520.457031 121.621094 524.953125 122.945312 C 533.597656 129.460938 520.59375 131.851562 515.359375 131.789062 C 494.6875 132.34375 492.347656 123.433594 510.453125 122.179688 Z M 510.453125 122.179688 " fill-opacity="1" fill-rule="nonzero"/><path fill="#8c52ff" d="M 513.808594 265.605469 C 530.8125 264.574219 531.71875 274.652344 513.808594 274.378906 C 493.21875 275.167969 494.007812 265.023438 513.808594 265.605469 Z M 513.808594 265.605469 " fill-opacity="1" fill-rule="nonzero"/></svg>