<svg xmlns="http://www.w3.org/2000/svg" xmlns:xlink="http://www.w3.org/1999/xlink" width="1920" zoomAndPan="magnify" viewBox="0 0 1440 809.999993" height="1080" preserveAspectRatio="xMidYMid meet" version="1.0"><defs><clipPath id="2e43d665cb"><path d="M 385 63 L 1116.917969 63 L 1116.917969 800 L 385 800 Z M 385 63 " clip-rule="nonzero"/></clipPath></defs><path fill="#8c52ff" d="M 622.65625 260.578125 C 608.191406 260.578125 596.472656 272.308594 596.472656 286.765625 C 596.472656 301.230469 608.191406 312.949219 622.65625 312.949219 C 637.121094 312.949219 648.839844 301.230469 648.839844 286.765625 C 648.839844 272.308594 637.121094 260.578125 622.65625 260.578125 Z M 622.65625 292.074219 C 619.722656 292.074219 617.34375 289.695312 617.34375 286.765625 C 617.34375 283.832031 619.722656 281.453125 622.65625 281.453125 C 625.589844 281.453125 627.96875 283.832031 627.96875 286.765625 C 627.96875 289.695312 625.589844 292.074219 622.65625 292.074219 Z M 622.65625 292.074219 " fill-opacity="1" fill-rule="nonzero"/><path fill="#8c52ff" d="M 680.554688 260.578125 C 666.089844 260.578125 654.371094 272.308594 654.371094 286.765625 C 654.371094 301.230469 666.089844 312.949219 680.554688 312.949219 C 695.019531 312.949219 706.738281 301.230469 706.738281 286.765625 C 706.738281 272.308594 695.019531 260.578125 680.554688 260.578125 Z M 680.554688 292.074219 C 677.621094 292.074219 675.242188 289.695312 675.242188 286.765625 C 675.242188 283.832031 677.621094 281.453125 680.554688 281.453125 C 683.488281 281.453125 685.867188 283.832031 685.867188 286.765625 C 685.867188 289.695312 683.488281 292.074219 680.554688 292.074219 Z M 680.554688 292.074219 " fill-opacity="1" fill-rule="nonzero"/><path fill="#8c52ff" d="M 738.457031 260.578125 C 723.992188 260.578125 712.269531 272.308594 712.269531 286.765625 C 712.269531 301.230469 723.992188 312.949219 738.457031 312.949219 C 752.921875 312.949219 764.640625 301.230469 764.640625 286.765625 C 764.640625 272.308594 752.921875 260.578125 738.457031 260.578125 Z M 738.457031 292.074219 C 735.523438 292.074219 733.144531 289.695312 733.144531 286.765625 C 733.144531 283.832031 735.523438 281.453125 738.457031 281.453125 C 741.386719 281.453125 743.769531 283.832031 743.769531 286.765625 C 743.769531 289.695312 741.386719 292.074219 738.457031 292.074219 Z M 738.457031 292.074219 " fill-opacity="1" fill-rule="nonzero"/><path fill="#8c52ff" d="M 776.414062 488.050781 C 747.316406 488.050781 723.730469 511.636719 723.730469 540.730469 C 723.730469 569.828125 747.316406 593.414062 776.414062 593.414062 C 805.511719 593.414062 829.09375 569.828125 829.09375 540.730469 C 829.09375 511.636719 805.511719 488.050781 776.414062 488.050781 Z M 776.414062 572.542969 C 758.847656 572.542969 744.601562 558.304688 744.601562 540.730469 C 744.601562 523.167969 758.847656 508.921875 776.414062 508.921875 C 793.976562 508.921875 808.222656 523.167969 808.222656 540.730469 C 808.222656 558.304688 793.976562 572.542969 776.414062 572.542969 Z M 776.414062 572.542969 " fill-opacity="1" fill-rule="nonzero"/><path fill="#8c52ff" d="M 439.488281 679.347656 C 443.535156 683.457031 450.140625 683.5 454.242188 679.453125 L 482.796875 651.285156 C 486.898438 647.234375 486.941406 640.628906 482.890625 636.527344 L 454.722656 607.972656 C 450.675781 603.871094 444.066406 603.828125 439.964844 607.878906 C 435.867188 611.917969 435.824219 618.535156 439.871094 622.636719 L 460.703125 643.75 L 439.589844 664.589844 C 435.480469 668.640625 435.4375 675.246094 439.488281 679.347656 Z M 439.488281 679.347656 " fill-opacity="1" fill-rule="nonzero"/><path fill="#8c52ff" d="M 503.460938 653.902344 L 564.429688 653.902344 C 570.203125 653.902344 574.867188 649.238281 574.867188 643.46875 C 574.867188 637.707031 570.203125 633.03125 564.429688 633.03125 L 503.460938 633.03125 C 497.691406 633.03125 493.023438 637.707031 493.023438 643.46875 C 493.023438 649.238281 497.691406 653.902344 503.460938 653.902344 Z M 503.460938 653.902344 " fill-opacity="1" fill-rule="nonzero"/><path fill="#8c52ff" d="M 916.070312 319.097656 C 920.089844 323.230469 926.695312 323.324219 930.839844 319.304688 C 934.972656 315.285156 935.066406 308.679688 931.046875 304.546875 L 913.972656 286.984375 L 931.546875 269.910156 C 935.679688 265.890625 935.773438 259.285156 931.757812 255.152344 C 927.738281 251.019531 921.132812 250.914062 917 254.933594 L 891.941406 279.28125 C 887.808594 283.296875 887.714844 289.90625 891.734375 294.039062 L 916.070312 319.09375 Z M 916.070312 319.097656 " fill-opacity="1" fill-rule="nonzero"/><path fill="#8c52ff" d="M 1027.65625 287.339844 L 1010.582031 304.902344 C 1006.574219 309.035156 1006.667969 315.640625 1010.800781 319.660156 C 1014.933594 323.675781 1021.539062 323.582031 1025.558594 319.449219 L 1049.90625 294.394531 C 1053.914062 290.261719 1053.820312 283.652344 1049.6875 279.636719 L 1024.628906 255.289062 C 1020.496094 251.28125 1013.890625 251.375 1009.875 255.507812 C 1005.855469 259.640625 1005.960938 266.246094 1010.09375 270.265625 Z M 1027.65625 287.339844 " fill-opacity="1" fill-rule="nonzero"/><path fill="#8c52ff" d="M 955.375 327.757812 C 960.769531 329.792969 966.792969 327.070312 968.816406 321.671875 L 992.351562 259.210938 C 994.375 253.816406 991.652344 247.804688 986.253906 245.769531 C 980.859375 243.734375 974.847656 246.457031 972.8125 251.855469 L 949.289062 314.316406 C 947.253906 319.710938 949.980469 325.734375 955.375 327.757812 Z M 955.375 327.757812 " fill-opacity="1" fill-rule="nonzero"/><g clip-path="url(#2e43d665cb)"><path fill="#8c52ff" d="M 1074.964844 81.355469 C 1051.460938 81.355469 1032.414062 100.414062 1032.414062 123.914062 C 1032.414062 127.863281 1033.128906 131.613281 1034.132812 135.242188 L 1017.535156 144.003906 C 1014.109375 145.8125 1011.960938 149.371094 1011.960938 153.230469 L 1011.960938 194.164062 L 983.175781 194.164062 L 983.175781 147.238281 C 1001.605469 142.558594 1015.289062 126 1015.289062 106.121094 C 1015.289062 82.621094 996.242188 63.5625 972.730469 63.5625 C 949.21875 63.5625 930.179688 82.621094 930.179688 106.121094 C 930.179688 126.007812 943.875 142.570312 962.304688 147.242188 L 962.304688 194.164062 L 929.671875 194.164062 L 929.671875 153.230469 C 929.671875 149.359375 927.53125 145.8125 924.105469 144.003906 L 907.507812 135.246094 C 908.511719 131.617188 909.226562 127.867188 909.226562 123.914062 C 909.226562 100.414062 890.167969 81.355469 866.664062 81.355469 C 843.164062 81.355469 824.105469 100.414062 824.105469 123.914062 C 824.105469 147.417969 843.164062 166.464844 866.664062 166.464844 C 878.6875 166.464844 889.496094 161.4375 897.238281 153.425781 L 908.796875 159.523438 L 908.796875 194.164062 L 877.257812 194.164062 C 865.738281 194.164062 856.386719 203.503906 856.386719 215.035156 L 856.386719 231.085938 L 585.304688 231.085938 C 568.011719 231.085938 553.992188 245.101562 553.992188 262.394531 L 553.992188 488.050781 L 435.84375 488.050781 C 430.21875 488.050781 424.824219 490.324219 420.898438 494.351562 L 391.355469 524.660156 C 387.554688 528.550781 385.425781 533.78125 385.425781 539.230469 L 385.425781 778.398438 C 385.425781 789.929688 394.777344 799.269531 406.300781 799.269531 L 596.46875 799.269531 C 608 799.269531 617.34375 789.929688 617.34375 778.398438 L 617.34375 557.003906 L 662.542969 557.003906 C 661.703125 574.40625 673.972656 592.242188 695.417969 592.734375 C 703.410156 592.921875 709.285156 600.292969 707.6875 608.128906 C 700.6875 642.421875 744.121094 663.335938 766.570312 636.484375 C 771.695312 630.347656 781.128906 630.347656 786.253906 636.484375 C 808.703125 663.335938 852.136719 642.421875 845.136719 608.128906 C 843.539062 600.292969 849.414062 592.921875 857.410156 592.734375 C 878.851562 592.242188 891.121094 574.40625 890.28125 557.003906 L 967.523438 557.003906 C 984.816406 557.003906 998.832031 542.984375 998.832031 525.691406 L 998.832031 379.375 L 1064.371094 379.375 C 1075.902344 379.375 1085.242188 370.023438 1085.242188 358.503906 L 1085.242188 215.035156 C 1085.242188 203.503906 1075.902344 194.164062 1064.371094 194.164062 L 1032.832031 194.164062 L 1032.832031 159.527344 L 1044.398438 153.425781 C 1052.136719 161.441406 1062.945312 166.464844 1074.964844 166.464844 C 1098.476562 166.464844 1117.523438 147.417969 1117.523438 123.914062 C 1117.523438 100.414062 1098.476562 81.355469 1074.964844 81.355469 Z M 866.664062 145.59375 C 854.695312 145.59375 844.980469 135.886719 844.980469 123.914062 C 844.980469 111.933594 854.695312 102.230469 866.664062 102.230469 C 878.648438 102.230469 888.351562 111.933594 888.351562 123.914062 C 888.351562 135.886719 878.648438 145.59375 866.664062 145.59375 Z M 951.054688 106.121094 C 951.054688 94.152344 960.761719 84.433594 972.730469 84.433594 C 984.710938 84.433594 994.417969 94.152344 994.417969 106.121094 C 994.417969 118.101562 984.710938 127.808594 972.730469 127.808594 C 960.761719 127.808594 951.054688 118.101562 951.054688 106.121094 Z M 574.867188 262.394531 C 574.867188 256.632812 579.542969 251.957031 585.304688 251.957031 L 856.386719 251.957031 L 856.386719 322.5625 L 574.867188 322.5625 Z M 596.46875 778.398438 L 406.300781 778.398438 L 406.300781 539.230469 L 435.84375 508.921875 L 596.46875 508.921875 Z M 856.929688 571.875 C 835.929688 572.355469 820.484375 591.722656 824.691406 612.304688 C 827.351562 625.359375 810.808594 633.324219 802.273438 623.09375 C 788.800781 606.980469 764.023438 606.980469 750.550781 623.09375 C 742.003906 633.324219 725.472656 625.359375 728.132812 612.304688 C 732.339844 591.722656 716.894531 572.355469 695.894531 571.875 C 682.566406 571.5625 678.488281 553.671875 690.355469 547.621094 C 709.066406 538.070312 714.578125 513.921875 701.867188 497.191406 C 693.796875 486.589844 705.246094 472.238281 717.375 477.75 C 736.503906 486.421875 758.828125 475.671875 763.972656 455.300781 C 767.238281 442.390625 785.585938 442.390625 788.851562 455.300781 C 793.996094 475.671875 816.320312 486.421875 835.449219 477.75 C 847.578125 472.238281 859.027344 486.589844 850.960938 497.191406 C 838.246094 513.921875 843.757812 538.070312 862.46875 547.621094 C 874.335938 553.671875 870.246094 571.5625 856.929688 571.875 Z M 977.957031 525.691406 C 977.957031 531.453125 973.285156 536.128906 967.523438 536.128906 L 881.53125 536.128906 C 878.9375 533.394531 875.773438 530.96875 871.957031 529.023438 C 864.828125 525.390625 862.730469 516.195312 867.574219 509.828125 C 888.757812 481.972656 858.703125 444.277344 826.832031 458.734375 C 819.546875 462.03125 811.050781 457.941406 809.089844 450.183594 C 800.519531 416.257812 752.304688 416.257812 743.738281 450.183594 C 741.773438 457.941406 733.28125 462.03125 725.996094 458.734375 C 694.121094 444.277344 664.066406 481.972656 685.25 509.828125 C 690.09375 516.195312 687.996094 525.390625 680.867188 529.023438 C 677.054688 530.96875 673.886719 533.394531 671.292969 536.128906 L 617.34375 536.128906 L 617.34375 508.921875 C 617.34375 497.398438 608 488.050781 596.46875 488.050781 L 574.867188 488.050781 L 574.867188 343.433594 L 856.386719 343.433594 L 856.386719 358.503906 C 856.386719 370.023438 865.738281 379.375 877.257812 379.375 L 977.957031 379.375 Z M 1064.371094 215.035156 L 1064.371094 358.503906 L 877.257812 358.503906 L 877.257812 215.035156 Z M 1074.964844 145.589844 C 1062.992188 145.589844 1053.289062 135.886719 1053.289062 123.914062 C 1053.289062 111.933594 1062.992188 102.226562 1074.964844 102.226562 C 1086.945312 102.226562 1096.652344 111.933594 1096.652344 123.914062 C 1096.652344 135.886719 1086.945312 145.589844 1074.964844 145.589844 Z M 1074.964844 145.589844 " fill-opacity="1" fill-rule="nonzero"/></g><path fill="#8c52ff" d="M 549.371094 45.394531 L 532.222656 68.039062 C 528.738281 72.632812 529.644531 79.175781 534.238281 82.652344 C 538.839844 86.136719 545.382812 85.226562 548.859375 80.636719 L 566.007812 58 C 569.480469 53.410156 568.582031 46.855469 563.992188 43.378906 C 559.390625 39.894531 552.847656 40.800781 549.371094 45.394531 Z M 549.371094 45.394531 " fill-opacity="1" fill-rule="nonzero"/><path fill="#8c52ff" d="M 409.804688 245.058594 C 417.9375 251.511719 422.757812 259.492188 422.757812 267.289062 L 422.757812 283.945312 C 422.757812 296.871094 430.59375 307.957031 441.773438 312.738281 L 441.773438 316.183594 C 441.773438 330.460938 453.347656 342.046875 467.632812 342.046875 C 482.515625 342.046875 494.316406 329.511719 493.441406 314.660156 L 493.351562 313.097656 C 505.085938 308.582031 513.449219 297.273438 513.449219 283.945312 L 513.449219 267.289062 C 513.449219 259.492188 518.269531 251.511719 526.398438 245.058594 C 549.757812 226.515625 564.722656 197.15625 564.722656 164.292969 C 564.722656 108.886719 521.976562 63.019531 468.101562 63.019531 C 414.230469 63.019531 371.484375 108.886719 371.484375 164.292969 C 371.484375 197.15625 386.4375 226.515625 409.804688 245.058594 Z M 467.632812 321.171875 C 464.878906 321.171875 462.644531 318.9375 462.644531 316.183594 L 462.644531 315.253906 L 472.574219 315.253906 L 472.613281 315.890625 C 472.777344 318.75 470.503906 321.171875 467.632812 321.171875 Z M 492.578125 283.945312 C 492.578125 289.707031 487.902344 294.382812 482.140625 294.382812 L 454.066406 294.382812 C 448.292969 294.382812 443.628906 289.707031 443.628906 283.945312 L 443.628906 269.730469 L 492.578125 269.730469 Z M 468.101562 83.890625 C 509.421875 83.890625 543.851562 119.367188 543.851562 164.292969 C 543.851562 190.769531 531.804688 214.117188 513.417969 228.71875 C 506.933594 233.863281 500.851562 240.710938 496.9375 248.859375 L 439.265625 248.859375 C 435.351562 240.710938 429.269531 233.863281 422.789062 228.71875 C 404.390625 214.117188 392.355469 190.769531 392.355469 164.292969 C 392.355469 119.363281 426.777344 83.890625 468.105469 83.890625 Z M 468.101562 83.890625 " fill-opacity="1" fill-rule="nonzero"/><path fill="#8c52ff" d="M 457.667969 20.117188 L 457.667969 48.511719 C 457.667969 54.273438 462.332031 58.949219 468.101562 58.949219 C 473.863281 58.949219 478.539062 54.273438 478.539062 48.511719 L 478.539062 20.117188 C 478.539062 14.34375 473.863281 9.679688 468.101562 9.679688 C 462.332031 9.679688 457.667969 14.34375 457.667969 20.117188 Z M 457.667969 20.117188 " fill-opacity="1" fill-rule="nonzero"/><path fill="#8c52ff" d="M 372.882812 42.503906 C 368.289062 45.976562 367.394531 52.53125 370.867188 57.125 L 388.015625 79.757812 C 391.488281 84.351562 398.035156 85.257812 402.636719 81.773438 C 407.226562 78.296875 408.136719 71.753906 404.648438 67.164062 L 387.503906 44.515625 C 384.027344 39.925781 377.484375 39.027344 372.882812 42.503906 Z M 372.882812 42.503906 " fill-opacity="1" fill-rule="nonzero"/><path fill="#8c52ff" d="M 581.710938 131.097656 C 575.992188 131.804688 571.921875 137.011719 572.621094 142.734375 C 573.320312 148.453125 578.53125 152.523438 584.25 151.824219 L 612.4375 148.359375 C 618.15625 147.660156 622.226562 142.449219 621.527344 136.730469 C 620.828125 131.011719 615.621094 126.941406 609.902344 127.640625 Z M 581.710938 131.097656 " fill-opacity="1" fill-rule="nonzero"/><path fill="#8c52ff" d="M 364.460938 129.375 L 336.269531 125.917969 C 330.550781 125.207031 325.34375 129.28125 324.636719 135 C 323.9375 140.730469 328.007812 145.9375 333.726562 146.636719 L 361.914062 150.089844 C 367.632812 150.789062 372.839844 146.71875 373.539062 141 C 374.25 135.28125 370.179688 130.074219 364.460938 129.375 Z M 364.460938 129.375 " fill-opacity="1" fill-rule="nonzero"/><path fill="#8c52ff" d="M 1053.550781 717.628906 L 1027.886719 717.628906 C 1026.953125 717.628906 1026.066406 717.785156 1025.164062 717.902344 C 1026.847656 714.894531 1027.886719 711.476562 1027.886719 707.785156 L 1027.886719 682.121094 C 1027.886719 670.589844 1018.535156 661.25 1007.011719 661.25 L 981.339844 661.25 C 980.25 661.25 979.199219 661.410156 978.15625 661.570312 C 979.851562 658.554688 980.902344 655.121094 980.902344 651.410156 L 980.902344 625.734375 C 980.902344 614.214844 971.550781 604.863281 960.03125 604.863281 L 934.355469 604.863281 C 922.824219 604.863281 913.484375 614.214844 913.484375 625.734375 L 913.484375 651.410156 C 913.484375 657.511719 916.144531 662.949219 920.316406 666.765625 C 916.144531 670.582031 913.484375 676.019531 913.484375 682.121094 L 913.484375 707.785156 C 913.484375 713.890625 916.144531 719.328125 920.320312 723.144531 C 916.144531 726.960938 913.484375 732.402344 913.484375 738.5 L 913.484375 764.171875 C 913.484375 775.707031 922.824219 785.046875 934.355469 785.046875 L 960.03125 785.046875 C 963.9375 785.046875 967.554688 783.902344 970.683594 782.03125 C 973.8125 783.902344 977.429688 785.046875 981.339844 785.046875 L 1007.011719 785.046875 C 1010.832031 785.046875 1014.367188 783.945312 1017.449219 782.152344 C 1020.527344 783.945312 1024.0625 785.046875 1027.886719 785.046875 L 1053.550781 785.046875 C 1065.082031 785.046875 1074.421875 775.707031 1074.421875 764.171875 L 1074.421875 738.5 C 1074.421875 726.976562 1065.082031 717.628906 1053.550781 717.628906 Z M 960.03125 764.171875 L 934.355469 764.171875 L 934.355469 738.5 L 960.03125 738.5 Z M 960.03125 707.785156 L 934.355469 707.785156 L 934.355469 682.121094 L 960.03125 682.121094 Z M 960.03125 651.410156 L 934.355469 651.410156 L 934.355469 625.734375 L 960.03125 625.734375 Z M 1007.011719 764.171875 L 981.339844 764.171875 L 981.339844 738.5 L 1007.011719 738.5 Z M 1007.011719 707.785156 L 981.339844 707.785156 L 981.339844 682.121094 L 1007.011719 682.121094 Z M 1053.550781 764.171875 L 1027.886719 764.171875 L 1027.886719 738.5 L 1053.550781 738.5 Z M 1053.550781 764.171875 " fill-opacity="1" fill-rule="nonzero"/></svg>