<svg xmlns="http://www.w3.org/2000/svg" xmlns:xlink="http://www.w3.org/1999/xlink" width="1920" zoomAndPan="magnify" viewBox="0 0 1440 809.999993" height="1080" preserveAspectRatio="xMidYMid meet" version="1.0"><defs><clipPath id="266d8144f4"><path d="M 345 33 L 1094.835938 33 L 1094.835938 777.960938 L 345 777.960938 Z M 345 33 " clip-rule="nonzero"/></clipPath></defs><g clip-path="url(#266d8144f4)"><path fill="#8c52ff" d="M 810.742188 35.675781 C 817.066406 39.710938 820.027344 42.878906 824.191406 49.125 C 825.589844 58.566406 825.160156 66.289062 821.070312 74.945312 C 814.929688 81.566406 809.980469 85.339844 800.730469 85.878906 C 792.507812 85.425781 788.574219 84.429688 782.039062 79.144531 C 775.296875 70.5625 773.355469 66.117188 773.632812 55.4375 C 774.582031 48.503906 777.277344 44.648438 781.917969 39.515625 C 791.347656 32.722656 799.851562 32.679688 810.738281 35.675781 Z M 642.257812 40.835938 C 650.238281 47.707031 652.851562 51.886719 654.027344 62.453125 C 653.683594 70.671875 650.898438 75.511719 645.5 81.785156 C 638.539062 87.75 631.921875 88.757812 622.996094 88.503906 C 615.265625 86.828125 610.238281 81.867188 605.148438 76.023438 C 601.566406 68.855469 602.152344 60.765625 603.226562 52.964844 C 606.34375 46.832031 610.851562 42.941406 616.316406 38.792969 C 626.152344 35.984375 633.304688 36.277344 642.253906 40.835938 Z M 849.167969 77.945312 C 855.085938 83.789062 859.757812 90.375 864.542969 97.160156 C 865.394531 98.367188 866.25 99.578125 867.128906 100.820312 C 872.558594 108.53125 877.953125 116.261719 883.148438 124.128906 C 884.859375 126.679688 886.628906 129.191406 888.453125 131.660156 C 894.136719 139.742188 896.902344 146.183594 896.292969 156.175781 C 894.359375 164.601562 889.527344 170.984375 884.476562 177.859375 C 883.476562 179.289062 882.472656 180.714844 881.4375 182.183594 C 877.292969 188.074219 873.113281 193.941406 868.867188 199.757812 C 867.808594 201.257812 866.738281 202.773438 865.65625 204.300781 C 864.6875 205.644531 863.722656 206.988281 862.722656 208.367188 C 860.25 213.355469 860.566406 216.257812 861.421875 221.691406 C 861.859375 227.023438 861.636719 230.3125 858.550781 234.757812 C 852.210938 242.097656 845.1875 248.636719 837.644531 254.714844 L 833.800781 254.714844 C 832.601562 247.363281 831.511719 239.996094 830.441406 232.621094 C 830.101562 230.550781 829.761719 228.480469 829.410156 226.34375 C 827.519531 212.847656 827.902344 204.515625 835.722656 193.230469 C 836.941406 191.347656 838.160156 189.46875 839.417969 187.527344 C 840.574219 185.921875 841.734375 184.316406 842.929688 182.664062 C 844.109375 181.019531 845.285156 179.375 846.5 177.679688 C 847.382812 176.46875 848.265625 175.261719 849.171875 174.015625 C 848.539062 173.382812 847.90625 172.75 847.253906 172.09375 C 846.394531 173 845.53125 173.902344 844.648438 174.835938 C 843.484375 176.03125 842.324219 177.226562 841.128906 178.460938 C 839.992188 179.644531 838.855469 180.824219 837.683594 182.039062 C 835.097656 184.378906 832.140625 186.304688 828.820312 187.828125 C 821.765625 193.140625 821.34375 199.613281 819.753906 208.003906 C 819.429688 209.535156 819.105469 211.066406 818.773438 212.644531 C 817.984375 216.414062 817.242188 220.195312 816.507812 223.972656 C 815.625 223.308594 814.742188 222.644531 813.832031 221.960938 C 812.652344 221.089844 811.472656 220.222656 810.257812 219.328125 C 809.097656 218.464844 807.9375 217.601562 806.742188 216.714844 C 801.242188 213.207031 795.945312 211.945312 789.609375 210.523438 C 790.105469 206.957031 790.632812 203.394531 791.167969 199.835938 C 791.460938 197.851562 791.75 195.871094 792.046875 193.824219 C 793.671875 186.460938 795.515625 180.613281 799.214844 174.015625 C 803.242188 171.59375 807.605469 169.511719 812.304688 167.773438 C 823.457031 164.140625 833.183594 158.535156 841.484375 150.960938 C 842.671875 146.222656 843.703125 141.578125 844.609375 136.789062 C 844.867188 135.519531 845.125 134.253906 845.386719 132.945312 C 846.734375 126.050781 847.546875 119.554688 847.25 112.53125 C 846.738281 114.476562 846.230469 116.425781 845.703125 118.429688 C 845.019531 121.027344 844.332031 123.625 843.648438 126.222656 C 843.3125 127.5 842.980469 128.777344 842.636719 130.09375 C 841.957031 132.648438 841.253906 135.195312 840.527344 137.738281 C 839.773438 140.402344 839.132812 143.652344 838.605469 147.484375 C 833.839844 156.410156 825.371094 158.535156 816.269531 162.128906 C 814.488281 162.886719 812.710938 163.644531 810.878906 164.421875 C 800.519531 168.6875 791.230469 171.640625 780.003906 172.09375 C 776.722656 170.09375 774.160156 167.53125 772.316406 164.410156 C 772.40625 160.628906 773.046875 156.785156 774.238281 152.882812 C 777.273438 150.585938 780.757812 148.542969 784.6875 146.753906 C 786.753906 145.8125 788.84375 144.859375 790.953125 143.898438 C 799.335938 140.535156 807.757812 137.796875 816.511719 135.589844 C 816.628906 134.402344 816.746094 133.203125 816.863281 131.992188 C 817.949219 121.011719 819.117188 110.046875 820.355469 99.082031 L 818.433594 99.082031 C 818.128906 100.773438 817.820312 102.480469 817.511719 104.207031 C 815.125 116.085938 812.269531 124.703125 808.945312 130.0625 C 800.023438 135.527344 790.320312 137.878906 780.007812 139.429688 C 779.371094 138.796875 778.730469 138.15625 778.085938 137.511719 C 775.375 137.074219 772.644531 136.753906 769.910156 136.480469 C 768.269531 136.316406 766.628906 136.148438 764.9375 135.972656 C 763.214844 135.808594 761.488281 135.640625 759.710938 135.46875 C 757.976562 135.292969 756.226562 135.117188 754.460938 134.9375 C 750.167969 134.507812 745.871094 134.082031 741.578125 133.667969 C 742.21875 130.707031 743.5 127.503906 745.421875 124.058594 C 752.507812 119.980469 760.480469 118.277344 768.425781 116.644531 C 788.015625 112.554688 799.246094 105.183594 812.507812 90.136719 C 822.898438 78.367188 833.316406 69.875 849.179688 77.945312 Z M 602.835938 81.539062 C 611.558594 86.925781 614.613281 92.476562 618.382812 101.78125 C 627.570312 123.195312 638.722656 132.957031 659.511719 141.890625 C 665.953125 144.71875 671.132812 147.949219 676.242188 152.882812 C 677.257812 159.101562 677.347656 162.570312 674.078125 168.011719 C 668.644531 171.273438 665.304688 170.753906 658.949219 170.175781 C 652.371094 168.070312 646.144531 165.324219 639.855469 162.488281 C 638.1875 161.792969 636.5 161.089844 634.796875 160.378906 C 622.878906 155.0625 614.363281 148.46875 607.070312 137.507812 L 607.070312 133.667969 L 603.226562 133.667969 C 602.714844 135.023438 602.207031 136.375 601.679688 137.773438 C 599.257812 143.574219 596.421875 148.945312 593.378906 154.441406 C 592.34375 156.320312 591.308594 158.195312 590.242188 160.125 C 589.453125 161.539062 588.664062 162.953125 587.855469 164.410156 C 588.804688 164.941406 589.753906 165.46875 590.730469 166.015625 C 595.097656 168.5 599.398438 171.074219 603.707031 173.65625 C 605.199219 174.488281 606.707031 175.328125 608.230469 176.175781 C 621.113281 184.046875 624.214844 192.519531 628.203125 206.679688 C 629.582031 210.742188 630.976562 214.796875 632.386719 218.847656 C 633.757812 222.996094 635.125 227.148438 636.492188 231.296875 C 637.207031 233.398438 637.921875 235.496094 638.65625 237.660156 C 639.320312 239.695312 639.984375 241.730469 640.671875 243.824219 C 641.277344 245.644531 641.882812 247.460938 642.503906 249.332031 C 643.757812 255.628906 643.289062 260.058594 641.652344 266.246094 C 636.3125 270.972656 633.289062 271.984375 626.164062 272.128906 C 618.71875 269.433594 616.089844 265.492188 612.832031 258.558594 C 611.730469 254.742188 610.722656 250.894531 609.785156 247.03125 C 604.296875 224.894531 599.785156 207.128906 579.972656 194.09375 C 572.835938 189.996094 565.566406 186.238281 558.210938 182.546875 C 549.804688 177.84375 540.269531 171.691406 536.257812 162.628906 C 532.996094 146.113281 546.523438 130.605469 554.949219 117.453125 C 555.917969 115.925781 556.886719 114.402344 557.882812 112.828125 C 559.832031 109.765625 561.792969 106.714844 563.765625 103.667969 C 565.777344 100.542969 567.75 97.390625 569.683594 94.214844 C 570.652344 92.667969 571.632812 91.105469 572.617188 89.527344 C 573.46875 88.132812 574.320312 86.734375 575.199219 85.300781 C 582.910156 76.414062 592.769531 76.660156 602.832031 81.539062 Z M 637.8125 122.136719 C 643.464844 123.273438 649.105469 124.4375 654.746094 125.621094 C 656.34375 125.9375 657.949219 126.257812 659.597656 126.585938 C 661.136719 126.914062 662.679688 127.242188 664.269531 127.578125 C 665.6875 127.871094 667.105469 128.164062 668.570312 128.464844 C 672.988281 130.03125 675.125 132.078125 678.164062 135.589844 C 673.785156 138.34375 671.367188 139.527344 666.152344 138.949219 C 659.859375 137.234375 654.535156 134.617188 648.742188 131.625 C 646.6875 130.574219 644.636719 129.519531 642.519531 128.4375 C 640.96875 127.625 639.414062 126.816406 637.816406 125.984375 L 637.816406 122.140625 Z M 989.433594 139.429688 C 996.988281 144.046875 1001.261719 148.0625 1003.84375 156.484375 C 1005.296875 164.519531 1004.367188 170.335938 1000.960938 177.859375 C 994.742188 184.546875 988.648438 189.089844 979.464844 189.988281 C 968.84375 189.117188 962.183594 185.648438 954.96875 177.5 C 951.378906 167.996094 951.449219 158.953125 954.847656 149.398438 C 964.261719 139.101562 976.003906 134.710938 989.433594 139.429688 Z M 682.042969 141.121094 C 683.746094 141.125 685.445312 141.128906 687.203125 141.136719 C 689.125 141.136719 691.046875 141.136719 693.027344 141.136719 L 699.367188 141.167969 C 701.5 141.167969 703.648438 141.171875 705.820312 141.175781 C 712.65625 141.183594 719.488281 141.207031 726.320312 141.234375 C 730.941406 141.242188 735.5625 141.253906 740.179688 141.261719 C 751.53125 141.28125 762.882812 141.3125 774.238281 141.355469 L 774.238281 147.117188 L 770.394531 147.117188 C 767.617188 155.445312 766.621094 164.441406 770.515625 172.457031 C 771.109375 173.609375 771.703125 174.757812 772.316406 175.941406 C 771.835938 179.460938 771.195312 182.664062 770.394531 185.546875 L 756.945312 185.546875 L 756.945312 156.726562 L 693.539062 156.726562 L 693.539062 185.546875 L 680.089844 185.546875 C 680.109375 184.472656 680.128906 183.394531 680.148438 182.285156 C 680.230469 177.40625 680.28125 172.53125 680.328125 167.652344 C 680.359375 165.960938 680.394531 164.265625 680.425781 162.523438 C 680.4375 160.894531 680.453125 159.265625 680.464844 157.589844 C 680.484375 156.089844 680.503906 154.589844 680.527344 153.042969 C 680.402344 149.980469 678.972656 146.726562 676.246094 143.273438 C 677.527344 141.992188 679.460938 141.277344 682.046875 141.121094 Z M 459.121094 168.253906 C 466.757812 172.652344 471.691406 177.140625 474.492188 185.546875 C 475.238281 194.632812 475.417969 199.101562 471.25 207.28125 C 464.378906 215.261719 460.199219 217.875 449.632812 219.050781 C 439.722656 218.65625 433.582031 213.921875 426.816406 206.921875 C 423.152344 200.367188 421.902344 194.882812 423.386719 187.421875 C 425.609375 180.34375 427.925781 176.378906 433.300781 171.132812 C 442.179688 167.257812 449.589844 166.222656 459.121094 168.253906 Z M 537.898438 177.859375 C 552.136719 183.332031 561.742188 189.097656 566.71875 195.152344 C 568.851562 205.414062 568.609375 214.199219 564.800781 223.972656 C 559.574219 229.257812 553.644531 233.269531 547.507812 237.425781 C 545.863281 238.613281 544.203125 239.816406 542.527344 241.03125 C 537.433594 244.710938 532.273438 248.28125 527.089844 251.835938 L 521.835938 255.585938 C 512.320312 262.078125 504.847656 265 499.417969 264.347656 C 495.609375 263.050781 492.464844 261.320312 489.984375 259.160156 C 487.164062 253.027344 486.605469 249.878906 487.945312 243.191406 C 494.058594 236.28125 501.605469 231.324219 509.71875 227.058594 C 520.132812 221.964844 528.871094 215.066406 535.921875 206.367188 C 538.269531 196.894531 538.367188 187.566406 537.902344 177.859375 Z M 1022.097656 187.46875 C 1028.453125 194.359375 1032.484375 201.898438 1036.351562 210.351562 C 1036.933594 211.597656 1037.515625 212.847656 1038.113281 214.132812 C 1039.332031 216.753906 1040.542969 219.378906 1041.75 222.003906 C 1043.59375 226.015625 1045.457031 230.019531 1047.328125 234.019531 C 1048.515625 236.578125 1049.699219 239.136719 1050.882812 241.695312 C 1051.4375 242.886719 1051.996094 244.089844 1052.5625 245.304688 C 1057.578125 256.265625 1058.8125 263.238281 1058.050781 275.304688 C 1056.066406 296 1058.546875 315.632812 1065.480469 334.199219 C 1070 338.796875 1074.746094 342.859375 1079.742188 346.945312 C 1082.480469 350.070312 1085.132812 353.265625 1087.667969 356.554688 C 1088.703125 357.820312 1089.738281 359.089844 1090.804688 360.398438 C 1093.632812 364.949219 1094.589844 368.523438 1095.113281 373.847656 C 1092.300781 379.734375 1089.097656 383.578125 1085.503906 385.375 C 1082.144531 386.09375 1078.300781 386.09375 1073.976562 385.375 C 1062.726562 376.894531 1054.121094 364.816406 1045.378906 353.898438 C 1041.890625 349.582031 1038.292969 345.433594 1034.585938 341.300781 C 1027.09375 332.125 1027.402344 323.429688 1026.78125 311.882812 C 1026.699219 310.449219 1026.617188 309.003906 1026.53125 307.542969 C 1026.328125 304.023438 1026.132812 300.507812 1025.941406 296.988281 C 1021.554688 299.597656 1017.199219 302.242188 1012.851562 304.914062 C 1011.617188 305.644531 1010.382812 306.371094 1009.109375 307.121094 C 1007.914062 307.863281 1006.707031 308.613281 1005.488281 309.375 C 1004.390625 310.039062 1003.296875 310.703125 1002.164062 311.386719 C 994.8125 318.203125 992.265625 328.289062 989.554688 337.660156 C 988.90625 339.851562 988.257812 342.042969 987.589844 344.300781 C 986.25 348.886719 984.921875 353.472656 983.597656 358.0625 C 982.945312 360.246094 982.300781 362.433594 981.628906 364.679688 C 981.054688 366.667969 980.476562 368.660156 979.882812 370.707031 C 977.898438 375.792969 976.519531 378.328125 972.144531 381.527344 C 964.660156 382.480469 960.433594 382.644531 954.011719 378.527344 C 949.90625 372.128906 950.585938 367.9375 951.007812 360.394531 C 952.015625 355.824219 953.195312 351.292969 954.519531 346.808594 C 954.886719 345.570312 955.253906 344.332031 955.628906 343.058594 C 956.402344 340.460938 957.183594 337.867188 957.976562 335.277344 C 959.175781 331.335938 960.328125 327.382812 961.480469 323.429688 C 962.242188 320.894531 963.003906 318.359375 963.769531 315.824219 C 964.453125 313.546875 965.144531 311.246094 965.84375 308.921875 C 969.632812 299.421875 975.027344 293.230469 983.464844 287.582031 C 984.828125 286.660156 986.1875 285.738281 987.589844 284.785156 C 988.992188 283.859375 990.394531 282.929688 991.839844 281.976562 C 993.273438 281.011719 994.71875 280.039062 996.179688 279.054688 C 999.6875 276.691406 1003.203125 274.34375 1006.730469 272.007812 C 1003.636719 262.234375 999.625 253.195312 995.246094 243.9375 C 993.9375 240.875 993.28125 238.0625 993.28125 235.503906 C 991.195312 237.257812 989.113281 239.023438 987.035156 240.785156 C 985.878906 241.765625 984.714844 242.75 983.523438 243.757812 C 980.976562 245.902344 978.636719 248.335938 976.507812 251.0625 C 970.464844 256.125 964.226562 256.875 956.652344 257.960938 C 955.203125 258.1875 953.738281 258.417969 952.257812 258.648438 C 948.003906 259.296875 943.746094 259.894531 939.480469 260.484375 C 937.3125 260.808594 935.117188 261.136719 932.90625 261.464844 C 924.0625 262.578125 917.757812 262.074219 914 259.957031 C 911.773438 257.746094 910.339844 254.398438 909.699219 249.914062 C 910.339844 245.433594 911.777344 242.121094 914.011719 239.984375 C 918.679688 237.226562 921.804688 236.449219 927.164062 235.875 C 928.828125 235.664062 930.492188 235.460938 932.210938 235.246094 C 935.6875 234.859375 939.164062 234.480469 942.644531 234.105469 C 955.414062 232.503906 961.636719 229.445312 970.207031 219.5625 C 971.402344 218.007812 972.609375 216.4375 973.824219 214.851562 C 975.144531 213.171875 976.464844 211.5 977.828125 209.769531 C 979.121094 208.117188 980.429688 206.449219 981.75 204.761719 C 992.925781 190.527344 1002.855469 178.757812 1022.101562 187.46875 Z M 676.242188 191.308594 C 678.648438 190.871094 681.296875 190.683594 684.183594 190.746094 C 685.730469 190.765625 687.277344 190.78125 688.871094 190.800781 C 690.492188 190.851562 692.109375 190.898438 693.773438 190.949219 C 695.40625 190.976562 697.039062 191 698.71875 191.027344 C 702.757812 191.09375 706.792969 191.199219 710.828125 191.308594 C 713.082031 198.875 711.941406 204.652344 710.828125 212.445312 C 711.273438 215.417969 711.914062 217.980469 712.75 220.128906 C 721.730469 223.003906 730.726562 223.101562 739.648438 220.128906 C 742.707031 210.957031 742.136719 202.46875 739.648438 193.230469 C 743.273438 189.605469 748.445312 191.054688 753.257812 191.042969 C 754.789062 191.050781 756.324219 191.058594 757.902344 191.066406 C 759.433594 191.058594 760.984375 191.050781 762.546875 191.042969 C 770.175781 191.058594 774.710938 191.785156 776.15625 193.230469 C 776.605469 197.421875 776.949219 201.628906 777.234375 205.835938 C 777.398438 208.140625 777.558594 210.4375 777.722656 212.808594 C 777.839844 214.589844 777.957031 216.371094 778.078125 218.207031 C 783.933594 220.003906 786.070312 220.0625 792.367188 218.6875 C 796.929688 218.367188 801.09375 219.488281 804.859375 222.050781 C 809.753906 229.175781 810.054688 232.777344 808.820312 241.265625 C 807.460938 244.308594 805.539062 246.867188 803.054688 248.949219 C 796.277344 250.675781 791.738281 251.738281 785.164062 249.070312 C 784.09375 248.394531 783.023438 247.722656 781.921875 247.027344 L 778.078125 247.027344 C 778.101562 249.203125 778.121094 251.378906 778.144531 253.621094 C 778.160156 256.46875 778.179688 259.316406 778.195312 262.160156 C 778.210938 263.59375 778.230469 265.027344 778.246094 266.507812 C 778.277344 273.726562 777.578125 278.761719 776.152344 281.613281 L 739.648438 281.613281 L 741.898438 264.351562 C 742.03125 260.378906 740.789062 256.9375 738.167969 254.03125 C 735.296875 251.582031 731.667969 250.167969 727.277344 249.792969 C 722.582031 250.199219 718.378906 251.878906 714.671875 254.835938 C 711.640625 258.472656 710.480469 262.632812 711.1875 267.324219 C 711.703125 269.503906 712.21875 271.683594 712.75 273.929688 L 712.75 281.617188 C 706.746094 281.726562 700.738281 281.796875 694.734375 281.855469 C 693.027344 281.890625 691.316406 281.921875 689.558594 281.953125 C 687.921875 281.96875 686.269531 281.980469 684.605469 281.992188 C 683.09375 282.015625 681.570312 282.035156 680.03125 282.054688 C 677.503906 281.765625 674.960938 280.335938 672.402344 277.777344 C 672.074219 275.449219 671.910156 272.867188 671.902344 270.023438 C 671.890625 268.425781 671.878906 266.828125 671.867188 265.183594 C 671.875 263.457031 671.882812 261.730469 671.890625 259.949219 C 671.886719 258.179688 671.882812 256.40625 671.878906 254.582031 C 671.875 250.828125 671.882812 247.074219 671.898438 243.324219 C 671.921875 237.578125 671.898438 231.832031 671.875 226.082031 C 671.875 222.441406 671.882812 218.800781 671.890625 215.15625 C 671.882812 213.433594 671.875 211.710938 671.867188 209.933594 C 671.878906 208.332031 671.890625 206.730469 671.902344 205.078125 C 671.90625 203.667969 671.910156 202.257812 671.914062 200.804688 C 672.238281 198.316406 673.679688 195.152344 676.242188 191.308594 Z M 428.378906 216.289062 C 435.671875 220.433594 441.445312 224.320312 445.671875 231.660156 C 445.910156 233.125 446.152344 234.589844 446.398438 236.101562 C 448.773438 246.382812 455.039062 253.742188 462.964844 260.480469 C 472.402344 264.246094 481.851562 266.140625 491.785156 268.167969 C 501.039062 271.019531 507.445312 274.21875 511 277.773438 C 511.816406 284.171875 512.148438 287.753906 508.234375 293.027344 C 500.53125 296.21875 493.953125 294.671875 486.019531 293.144531 C 484.777344 292.917969 483.53125 292.695312 482.246094 292.460938 C 460.71875 288.453125 446.605469 282.277344 439.90625 273.929688 C 438.523438 272.277344 437.140625 270.621094 435.71875 268.917969 C 431.902344 264.246094 428.1875 259.519531 424.535156 254.714844 C 424.101562 258.523438 424.988281 261.410156 427.191406 263.378906 C 428.296875 264.40625 429.402344 265.429688 430.539062 266.484375 C 434.214844 270.582031 436.070312 274.457031 436.109375 278.113281 C 435.066406 282.609375 433.695312 286.847656 432.21875 291.222656 C 430.878906 296.332031 429.628906 301.460938 428.378906 306.59375 C 430.230469 308.007812 432.101562 309.4375 433.992188 310.878906 C 436.445312 312.773438 438.894531 314.667969 441.347656 316.5625 C 442.566406 317.488281 443.785156 318.417969 445.039062 319.371094 C 446.230469 320.292969 447.417969 321.21875 448.644531 322.167969 C 449.730469 323.003906 450.828125 323.847656 451.9375 324.699219 C 460.773438 332.714844 464.011719 339.089844 465.816406 350.898438 C 466.019531 352.179688 466.222656 353.460938 466.429688 354.78125 C 466.851562 357.476562 467.257812 360.179688 467.648438 362.878906 C 468.246094 366.984375 468.882812 371.082031 469.53125 375.183594 C 472.695312 395.730469 472.386719 408.695312 468.609375 414.074219 C 464.84375 416.714844 460.640625 418.078125 456 418.15625 C 448.671875 415.847656 447.457031 414.921875 443.75 408.429688 C 442.828125 404.125 442.054688 399.4375 441.425781 394.367188 C 441.050781 391.605469 440.675781 388.847656 440.296875 386.085938 C 439.734375 381.753906 439.183594 377.417969 438.65625 373.082031 C 438.136719 368.882812 437.5625 364.691406 436.980469 360.5 C 436.667969 357.992188 436.351562 355.488281 436.023438 352.902344 C 435.207031 348.707031 433.039062 345.882812 429.523438 344.433594 C 427.878906 343.992188 426.234375 343.554688 424.535156 343.101562 C 420.414062 340.179688 416.46875 337.238281 412.527344 334.09375 C 410.324219 332.363281 408.121094 330.625 405.917969 328.894531 C 404.839844 328.042969 403.765625 327.191406 402.65625 326.316406 C 399.878906 324.136719 397.054688 322.015625 394.222656 319.902344 C 392.695312 318.761719 391.164062 317.617188 389.59375 316.441406 C 388.257812 315.457031 386.910156 314.460938 385.546875 313.453125 C 379.875 308.238281 378.542969 304.449219 378.007812 296.746094 C 378.488281 288.144531 380.601562 281.472656 383.617188 273.480469 C 384.152344 272.019531 384.691406 270.558594 385.242188 269.054688 C 386.378906 265.988281 387.519531 262.925781 388.675781 259.871094 C 390.433594 255.191406 392.144531 250.5 393.851562 245.804688 C 394.960938 242.820312 396.074219 239.835938 397.1875 236.851562 C 397.695312 235.453125 398.203125 234.054688 398.722656 232.613281 C 401.605469 225.101562 403.90625 220.199219 411.089844 216.285156 C 418.039062 213.96875 421.3125 214.484375 428.382812 216.285156 Z M 885.265625 220.179688 C 893.703125 223.894531 899.707031 229.871094 904.890625 237.425781 C 905.769531 242.1875 905.695312 245.9375 905.054688 250.722656 C 904.847656 255.808594 905.867188 258.21875 908.734375 262.402344 C 914.445312 266.285156 919.121094 266.601562 925.90625 266.726562 C 933.078125 267.308594 936.90625 268.128906 941.757812 273.570312 C 944.082031 277.652344 945.167969 280.914062 945.023438 283.351562 C 942.671875 288.917969 939.199219 292.265625 934.914062 296.507812 C 933.394531 298.042969 931.871094 299.578125 930.304688 301.160156 C 927.453125 303.503906 924.105469 304.671875 920.261719 304.671875 C 919.429688 302.535156 918.597656 300.394531 917.742188 298.1875 C 915.964844 293.320312 912.960938 289.71875 908.734375 287.382812 C 900.980469 286.199219 898.125 286.71875 891.679688 291.34375 C 886.632812 298.324219 886.660156 301.996094 887.597656 310.4375 C 888.230469 312.339844 888.867188 314.242188 889.519531 316.203125 C 894.019531 317.777344 898.5 319.058594 902.96875 320.046875 C 902.96875 325.167969 901.800781 329.265625 899.457031 332.332031 C 897.921875 333.867188 896.386719 335.398438 894.804688 336.980469 C 893.289062 338.535156 891.773438 340.09375 890.210938 341.699219 C 887.1875 343.914062 884.363281 345.050781 881.734375 345.105469 C 875.113281 341.5625 871.257812 335.503906 866.648438 329.710938 C 862.058594 325.265625 859.28125 324.496094 853.011719 323.886719 C 852.535156 325.671875 852.058594 327.453125 851.570312 329.292969 C 848.996094 335.855469 847.808594 338.191406 841.480469 341.179688 C 834.695312 341.039062 830.996094 339.972656 825.390625 336.136719 C 820.964844 329.664062 821.054688 325.804688 822.269531 318.125 C 825.148438 314.359375 828.351562 311.15625 831.875 308.515625 L 839.5625 308.515625 C 838.523438 302.308594 836 297.023438 831.996094 292.664062 C 830.6875 292.1875 829.378906 291.714844 828.03125 291.222656 C 825.710938 289.542969 823.789062 287.621094 822.269531 285.460938 C 822.429688 275.046875 829.308594 269.554688 836.230469 262.65625 C 837.441406 261.429688 838.652344 260.203125 839.898438 258.9375 C 842.460938 256.355469 845.03125 253.78125 847.613281 251.214844 C 851.5625 247.277344 855.457031 243.292969 859.351562 239.300781 C 861.847656 236.796875 864.347656 234.292969 866.851562 231.796875 C 868.011719 230.597656 869.175781 229.398438 870.375 228.164062 C 875.855469 222.800781 880.820312 220.140625 885.261719 220.179688 Z M 506.4375 307.675781 C 502.015625 317.027344 501.816406 325.242188 503.3125 335.417969 C 507.453125 344.003906 511.835938 348.921875 520.605469 352.710938 C 532.269531 355.34375 538.710938 354.933594 549.425781 348.867188 C 556.496094 342.71875 560.414062 338.652344 561.414062 329.132812 C 561.738281 318.007812 561.058594 311.359375 553.269531 302.753906 C 544.910156 295.191406 538.054688 293.839844 527.136719 294.332031 C 517.703125 295.835938 512.714844 300.898438 506.4375 307.675781 Z M 528.1875 263.945312 C 532.0625 264.070312 535.941406 264.195312 539.820312 264.320312 C 540.535156 266.460938 541.246094 268.601562 541.980469 270.808594 C 544.53125 276.789062 545.226562 277.585938 551.347656 280.773438 C 555.414062 281.804688 559.257812 280.804688 562.878906 277.773438 C 569.285156 278.394531 573.722656 280.933594 578.25 285.460938 C 578.949219 290.78125 578.289062 294.875 577.167969 300.109375 C 576.324219 303.328125 576.683594 306.769531 578.25 310.4375 C 582.101562 312.007812 585.945312 313.289062 589.777344 314.28125 C 591.21875 324.207031 591.21875 330.613281 589.777344 333.496094 C 585.976562 334.890625 582.128906 336.179688 578.25 337.339844 C 576.277344 345.8125 576.257812 350.644531 580.171875 358.472656 C 576.792969 363.988281 573.589844 367.832031 570.5625 370.003906 C 565.367188 370.300781 560.886719 369.671875 555.777344 368.71875 C 552.628906 368.039062 549.230469 368.46875 545.585938 370.003906 C 543.386719 374.488281 541.464844 378.972656 539.820312 383.453125 C 533.867188 383.425781 528.277344 383.15625 522.527344 381.53125 C 520.367188 377.6875 518.445312 373.84375 516.761719 370.003906 C 510.019531 367.65625 506.492188 367.667969 499.710938 369.882812 C 498.363281 370.558594 497.015625 371.230469 495.628906 371.921875 C 490.003906 367.539062 486.164062 363.695312 484.097656 360.394531 C 484.273438 355.578125 485.328125 351.78125 486.882812 347.230469 C 488.085938 342.542969 487.546875 339.945312 486.019531 335.417969 C 482.214844 334.78125 478.410156 334.148438 474.492188 333.496094 L 474.492188 314.28125 C 476.316406 313.84375 478.15625 313.40625 480.015625 312.957031 C 484.265625 311.675781 487.148438 309.152344 488.664062 305.390625 C 489.058594 303.886719 489.457031 302.382812 489.863281 300.828125 C 491.023438 300.777344 492.183594 300.730469 493.375 300.679688 C 494.910156 300.570312 496.445312 300.460938 498.03125 300.347656 C 499.546875 300.261719 501.0625 300.167969 502.625 300.078125 C 508.738281 298.5 510.996094 296.199219 514.84375 291.222656 C 516.179688 287.441406 517.21875 283.515625 517.964844 279.453125 C 520.015625 269.59375 523.421875 264.425781 528.1875 263.945312 Z M 380.34375 318.125 C 384.546875 320.898438 388.738281 323.691406 392.890625 326.546875 C 395.917969 328.621094 398.878906 330.332031 401.777344 331.679688 C 405.914062 333.867188 408.289062 335.488281 411.085938 339.257812 C 413.957031 350.097656 413.636719 359.796875 407.992188 369.621094 C 404.359375 374.097656 400.578125 378.308594 396.558594 382.445312 C 391.285156 388.03125 386.472656 394.019531 381.546875 399.90625 C 374.960938 407.738281 369.4375 413.140625 364.972656 416.117188 C 357.894531 415.863281 353.257812 415.605469 347.679688 411.074219 C 344.867188 404.398438 346.0625 400.058594 347.679688 393.0625 C 350.292969 389.507812 353.253906 386.066406 356.566406 382.734375 C 358.289062 380.898438 360.011719 379.058594 361.789062 377.164062 C 364.839844 374.039062 367.941406 370.964844 371.15625 368.007812 C 380.984375 357.898438 381.351562 348.839844 381.1875 335.300781 C 381.011719 329.558594 380.714844 323.859375 380.34375 318.125 Z M 991.957031 411.554688 C 997.898438 416.804688 1000.457031 420.082031 1002.886719 427.644531 C 1003.265625 436.550781 1002.183594 443.027344 997.363281 450.582031 C 990.519531 457.222656 985.421875 459.570312 975.984375 460.308594 C 967.234375 458.34375 961.28125 455.03125 954.851562 448.78125 C 950.1875 441.367188 950.582031 434.429688 951.757812 426.015625 C 954.003906 418.085938 959.628906 414.378906 966.019531 409.75 C 975.714844 406.707031 983.039062 407.175781 991.957031 411.554688 Z M 826.113281 441.09375 C 832.238281 445.285156 833.566406 447.769531 835.238281 455.023438 C 835.398438 456.769531 835.558594 458.53125 835.71875 460.308594 C 839.578125 462.0625 843.371094 461.925781 847.089844 459.894531 C 849.164062 458.804688 851.238281 457.710938 853.375 456.585938 C 855.460938 455.496094 857.550781 454.410156 859.699219 453.289062 C 861.296875 452.4375 862.914062 451.574219 864.542969 450.699219 C 870.738281 456.136719 874.816406 463.023438 879.195312 469.914062 C 879.976562 471.121094 880.761719 472.332031 881.566406 473.578125 C 887.167969 482.332031 889.417969 489.679688 888.320312 495.613281 C 887.511719 500.148438 887.910156 504.230469 889.523438 507.863281 C 894.722656 513.714844 899.476562 515.320312 906.816406 517.949219 C 905.824219 519.097656 904.832031 520.246094 903.8125 521.429688 C 902.902344 522.820312 901.988281 524.207031 901.050781 525.636719 C 901.683594 527.539062 902.316406 529.441406 902.972656 531.398438 C 904.476562 531.957031 905.984375 532.507812 907.535156 533.082031 C 910.898438 534.523438 913.820312 536.683594 916.300781 539.566406 C 917.660156 543.089844 917.941406 546.851562 917.140625 550.855469 C 914.390625 556.609375 911.585938 560.371094 908.734375 562.144531 C 901.675781 562.914062 897.0625 563.078125 890.722656 559.742188 C 887.28125 556.03125 886.363281 553.652344 885.679688 548.691406 C 882.804688 548.039062 879.601562 548.039062 876.070312 548.691406 C 870.8125 553.453125 866.242188 558.398438 861.585938 563.722656 C 856.734375 568.980469 852.308594 571.828125 848.308594 572.265625 C 841.011719 568.636719 835.945312 563.398438 830.320312 557.578125 C 829.171875 556.445312 828.023438 555.308594 826.839844 554.140625 C 821.230469 548.449219 818.429688 543.429688 818.429688 539.082031 C 819.65625 538.691406 820.878906 538.296875 822.144531 537.890625 C 823.730469 537.375 825.320312 536.855469 826.957031 536.324219 C 828.539062 535.808594 830.121094 535.296875 831.753906 534.769531 C 834.351562 534.03125 836.316406 532.910156 837.644531 531.398438 C 837.949219 528.792969 838.109375 525.992188 838.125 522.992188 C 838.171875 521.472656 838.222656 519.949219 838.273438 518.382812 C 837.496094 513.101562 836.097656 511.523438 831.878906 508.339844 C 825.339844 506.664062 818.933594 506.664062 812.664062 508.339844 C 810.992188 512.179688 809.710938 516.019531 808.820312 519.871094 L 801.136719 519.871094 C 798.910156 517.246094 796.789062 514.207031 794.773438 510.742188 C 793.75 509.046875 792.726562 507.355469 791.671875 505.609375 C 790.296875 502.304688 789.667969 499.265625 789.789062 496.488281 C 792.054688 491.914062 794.429688 490.535156 798.855469 488.042969 C 804.382812 484.832031 809.566406 481.574219 814.589844 477.597656 C 812.382812 472.636719 810.269531 469.394531 806.542969 465.347656 C 804.222656 461.984375 803.0625 458.339844 803.0625 454.417969 C 807.234375 442.160156 813.398438 439.269531 826.117188 441.085938 Z M 472.570312 458.386719 C 481.628906 459.308594 489.222656 460.246094 497.550781 464.152344 C 497.554688 465.449219 497.558594 466.761719 497.566406 468.085938 C 497.84375 475.667969 500.121094 482.484375 504.394531 488.53125 C 512.921875 491.789062 517.515625 490.964844 526.371094 489.128906 C 525.144531 490.914062 523.902344 492.714844 522.648438 494.535156 C 517.601562 502.332031 516.527344 507.308594 516.644531 516.390625 C 516.660156 518.121094 516.679688 519.851562 516.695312 521.636719 C 516.71875 522.957031 516.742188 524.273438 516.761719 525.636719 L 505.234375 529.480469 C 504.515625 528.179688 503.792969 526.882812 503.050781 525.546875 C 495.613281 512.578125 489.042969 503.492188 474.632812 497.867188 C 460.035156 494.015625 447.476562 496.238281 434.457031 503.554688 C 425.46875 509.75 420.292969 517.175781 416.847656 527.558594 C 414.8125 543.597656 415.710938 556.410156 425.089844 569.84375 C 432.488281 578.457031 440.710938 582.175781 451.433594 585.199219 C 455.828125 585.507812 460.234375 585.585938 464.644531 585.441406 C 466.859375 585.40625 469.097656 585.371094 471.355469 585.335938 C 473.023438 585.289062 474.695312 585.246094 476.414062 585.199219 C 476.019531 586.410156 475.625 587.617188 475.21875 588.863281 C 471.957031 599.230469 469.730469 608.960938 468.726562 619.785156 C 467.460938 619.152344 466.179688 618.511719 464.886719 617.863281 C 464.25 615.960938 463.617188 614.058594 462.964844 612.101562 C 456.511719 610.835938 450.332031 609.882812 443.75 610.179688 C 440.144531 613.246094 436.945312 616.449219 434.140625 619.785156 C 425.464844 620.015625 418.292969 614.558594 411.085938 610.179688 C 411.335938 608.902344 411.585938 607.625 411.84375 606.3125 C 413.039062 598.925781 412.265625 591.847656 409.523438 585.078125 C 400.933594 579.855469 394.195312 579.835938 384.183594 579.433594 C 381.648438 572.457031 379.085938 565.414062 376.5 558.296875 C 378.71875 557.109375 380.960938 555.910156 383.222656 554.695312 C 387.875 551.382812 389.675781 549.660156 391.25 544.113281 C 391.613281 537.132812 391.730469 531.769531 387.332031 526.097656 C 385.039062 524.105469 382.070312 522.027344 378.421875 519.871094 C 379.335938 517.066406 380.257812 514.265625 381.183594 511.464844 C 381.695312 509.902344 382.210938 508.34375 382.738281 506.734375 C 383.703125 503.960938 384.828125 501.296875 386.109375 498.734375 C 387.382812 498.84375 388.660156 498.957031 389.972656 499.070312 C 398.707031 499.519531 403.828125 499.644531 411.449219 495.011719 C 416.289062 486.835938 414.996094 480.855469 413.007812 471.835938 C 415.402344 470.261719 417.804688 468.703125 420.214844 467.152344 C 421.550781 466.28125 422.902344 465.402344 424.265625 464.515625 C 428.375 462.230469 431.367188 460.683594 436.066406 460.308594 C 437.84375 461.910156 439.5625 463.828125 441.230469 466.070312 C 444.839844 470 446.601562 471.664062 451.910156 472.585938 C 456.71875 472.304688 460.421875 471.71875 464.890625 469.914062 C 468.246094 466.222656 470.808594 462.378906 472.574219 458.386719 Z M 1008.648438 464.152344 C 1016.914062 472.15625 1018.074219 479.765625 1019.457031 490.691406 C 1019.679688 492.292969 1019.90625 493.898438 1020.136719 495.550781 C 1020.59375 498.847656 1021.035156 502.148438 1021.464844 505.449219 C 1022.054688 509.957031 1022.707031 514.457031 1023.371094 518.957031 C 1026.308594 539.675781 1025.683594 553.570312 1021.496094 560.632812 C 1020.425781 561.726562 1019.355469 562.820312 1018.25 563.945312 C 1017.039062 565.207031 1015.828125 566.472656 1014.582031 567.773438 C 1013.253906 569.085938 1011.933594 570.398438 1010.566406 571.75 C 1009.179688 573.179688 1007.796875 574.613281 1006.371094 576.089844 C 998.253906 584.390625 989.855469 592.242188 981.03125 599.785156 C 976.984375 603.113281 974.507812 607.339844 973.597656 612.46875 C 973.582031 615.082031 973.585938 617.695312 973.597656 620.3125 C 973.570312 623.152344 973.539062 625.996094 973.503906 628.839844 C 973.476562 633.320312 973.457031 637.800781 973.472656 642.285156 C 973.476562 646.609375 973.421875 650.933594 973.359375 655.257812 C 973.378906 656.59375 973.398438 657.929688 973.417969 659.304688 C 973.277344 666.378906 972.59375 669.257812 967.691406 674.492188 C 964.25 676.449219 960.207031 677.429688 955.5625 677.429688 C 951.238281 676.148438 948.011719 674.519531 945.875 672.539062 C 942.242188 665.851562 942.191406 659.355469 942.007812 651.910156 C 941.96875 650.355469 941.925781 648.800781 941.882812 647.199219 C 941.8125 643.902344 941.757812 640.609375 941.71875 637.316406 C 941.632812 632.339844 941.40625 627.382812 941.175781 622.414062 C 940.8125 608 940.632812 596.027344 950.414062 584.6875 C 954.902344 580.109375 959.566406 575.914062 964.449219 571.75 C 970.324219 566.59375 974.335938 560.390625 976.488281 553.140625 C 976.257812 547.125 975.613281 541.320312 974.777344 535.367188 C 974.542969 533.320312 974.304688 531.25 974.066406 529.160156 C 973.476562 524.136719 972.835938 519.121094 972.136719 514.109375 C 973.222656 513.484375 974.308594 512.855469 975.429688 512.210938 C 976.839844 511.371094 978.261719 510.523438 979.703125 509.667969 C 981.105469 508.84375 982.511719 508.015625 983.957031 507.167969 C 986.707031 505.453125 988.53125 502.644531 989.429688 498.738281 C 987.300781 500.082031 985.171875 501.421875 982.976562 502.804688 C 980.164062 504.570312 977.351562 506.339844 974.539062 508.105469 C 973.136719 508.988281 971.722656 509.882812 970.289062 510.785156 C 968.929688 511.640625 967.566406 512.492188 966.164062 513.375 C 964.917969 514.160156 963.667969 514.945312 962.382812 515.753906 C 949.660156 523.328125 940.304688 521.0625 926.347656 517.789062 C 923.152344 516.972656 919.960938 516.148438 916.777344 515.3125 C 915.152344 514.910156 913.53125 514.507812 911.855469 514.09375 C 910.296875 513.691406 908.738281 513.28125 907.132812 512.863281 C 905.730469 512.503906 904.316406 512.140625 902.886719 511.773438 C 898.503906 510.019531 896.273438 508.203125 893.359375 504.5 C 892.609375 498.511719 892.390625 494.683594 895.398438 489.371094 C 904.574219 484.042969 914.496094 487.566406 924.101562 490.089844 C 934.097656 493 943.933594 493.097656 953.597656 490.382812 C 956.679688 488.316406 959.714844 486.179688 962.6875 483.964844 C 965.144531 482.285156 967.652344 481.445312 970.214844 481.445312 C 970.335938 480.019531 970.457031 478.578125 970.578125 477.121094 C 972.683594 469.992188 975.503906 468.085938 981.746094 464.152344 C 992.003906 459.972656 998.425781 459.71875 1008.644531 464.152344 Z M 580.171875 466.074219 L 597.464844 466.074219 C 598.214844 468.214844 598.96875 470.351562 599.746094 472.558594 C 601.980469 477.703125 602.882812 479.289062 607.671875 482.527344 C 614.226562 483.59375 618.304688 482.058594 624.363281 479.523438 C 627.648438 482.328125 630.847656 485.53125 633.972656 489.132812 C 633.8125 492.335938 633.171875 495.539062 632.050781 498.738281 C 630.898438 504.113281 630.128906 508.59375 630.128906 514.109375 C 631.992188 514.585938 633.855469 515.0625 635.773438 515.550781 C 639.695312 517.152344 642.257812 519.074219 643.460938 521.316406 C 643.613281 526.796875 642.753906 531.808594 641.65625 537.167969 C 639.515625 537.328125 637.378906 537.484375 635.171875 537.648438 C 630.625 538.132812 627.34375 539.613281 625.324219 542.089844 C 623.882812 549.121094 625.109375 555.078125 626.285156 562.148438 C 619.390625 567.316406 614.1875 569.796875 610.675781 569.59375 C 608.273438 568.472656 605.792969 567.191406 603.230469 565.75 C 600.699219 564.386719 598.015625 563.988281 595.183594 564.546875 C 592.605469 565.316406 590.804688 567.078125 589.78125 569.832031 L 566.722656 569.832031 C 566.246094 568.007812 565.769531 566.1875 565.28125 564.308594 C 564.078125 560.25 562.035156 557.367188 559.15625 555.660156 C 556.359375 554.675781 553.117188 554.273438 549.429688 554.460938 C 548.796875 551.289062 548.160156 548.121094 547.507812 544.855469 C 558.457031 540.359375 566.128906 538.882812 570.519531 540.417969 C 573.742188 542.527344 576.957031 544.652344 580.171875 546.773438 C 589.527344 548.113281 596.289062 546.785156 604.160156 541.769531 C 609.609375 536.757812 611.546875 530.882812 612.835938 523.71875 C 612.835938 514.441406 610.890625 508.042969 604.480469 501.097656 C 598.382812 496.570312 591.476562 495.398438 584.015625 494.898438 C 581.957031 495.332031 579.894531 495.769531 577.769531 496.21875 C 576.027344 496.417969 574.28125 496.613281 572.488281 496.816406 C 569.363281 493.9375 566.160156 490.734375 562.878906 487.210938 C 558.480469 484.847656 554.128906 483.195312 549.429688 481.445312 C 551.332031 479.542969 553.234375 477.640625 555.195312 475.683594 C 556.898438 476.675781 558.601562 477.664062 560.359375 478.683594 C 567.109375 481.613281 569.503906 481.734375 576.328125 479.523438 C 577.597656 475.085938 578.867188 470.648438 580.171875 466.074219 Z M 555.191406 489.128906 C 563.625 493.347656 568.820312 497.671875 572.484375 506.421875 C 573.578125 516.464844 572.140625 522.882812 566.71875 531.402344 C 560.988281 537.792969 554.289062 538.566406 546.058594 539.199219 C 539.410156 539.027344 535.574219 537.1875 530.214844 533.324219 C 523.21875 525.589844 521.09375 519.03125 521.507812 508.832031 C 523.3125 501.175781 528.234375 496.121094 534.054688 491.050781 C 540.730469 487.714844 547.894531 488.246094 555.191406 489.128906 Z M 522.527344 533.324219 C 533.914062 538.699219 540.589844 544.582031 545.46875 556.117188 C 549.179688 563.597656 553.964844 569.070312 560.957031 573.671875 C 568.476562 575.390625 575.730469 575.296875 583.414062 575.113281 C 587.34375 575.078125 591.273438 575.066406 595.207031 575.082031 C 596.929688 575.046875 598.671875 575.011719 600.433594 574.976562 C 606.164062 575.726562 608.738281 577.328125 612.835938 581.355469 C 613.816406 589.199219 613.4375 591.984375 608.992188 598.648438 C 592.253906 603.125 565.632812 605.410156 549.308594 599.019531 C 542.40625 594.898438 537.292969 589.355469 532.132812 583.277344 C 528.949219 580.058594 525.75 576.851562 522.527344 573.671875 C 522.527344 580.566406 523.804688 581.566406 528.292969 586.523438 C 530.195312 588.621094 532.097656 590.722656 534.054688 592.886719 C 530.886719 601.761719 527.714844 610.640625 524.449219 619.785156 C 528.449219 623.191406 532.453125 626.59375 536.457031 629.992188 C 537.585938 630.953125 538.722656 631.921875 539.871094 632.902344 C 540.976562 633.835938 542.078125 634.769531 543.210938 635.734375 C 544.285156 636.648438 545.367188 637.570312 546.457031 638.503906 C 548.546875 640.261719 551.042969 642.058594 553.945312 643.894531 C 558.292969 647.730469 558.503906 650.46875 559.273438 656.171875 C 559.550781 658.203125 559.828125 660.234375 560.113281 662.328125 C 560.390625 664.777344 560.667969 667.222656 560.957031 669.742188 C 561.128906 671.246094 561.300781 672.75 561.480469 674.300781 C 562.046875 679.304688 562.589844 684.308594 563.117188 689.316406 C 563.285156 690.914062 563.457031 692.507812 563.628906 694.152344 C 565.449219 712.710938 565.121094 724.75 562.636719 730.265625 C 557.625 734.277344 553.875 734.808594 547.507812 735.070312 C 541.046875 732.917969 539.890625 731.332031 535.976562 725.460938 C 535.378906 721.0625 534.972656 716.636719 534.679688 712.207031 C 534.472656 709.554688 534.265625 706.90625 534.058594 704.25 C 533.75 700.085938 533.457031 695.921875 533.191406 691.753906 C 532.925781 687.71875 532.605469 683.691406 532.277344 679.664062 C 532.109375 677.253906 531.941406 674.847656 531.773438 672.367188 C 528.824219 660.144531 518.574219 654.558594 508.597656 647.882812 C 489.335938 634.820312 478.609375 626.09375 476.414062 621.707031 C 474.0625 606.03125 479.09375 593.011719 485.019531 578.6875 C 486.503906 575.101562 487.9375 571.5 489.359375 567.890625 C 499.375 543.050781 510.429688 531.527344 522.527344 533.320312 Z M 733.882812 544.851562 C 740.039062 549.699219 744.898438 554.613281 747.335938 562.144531 C 748.246094 570.332031 747.90625 574.53125 743.972656 581.839844 C 738.191406 588.902344 732.859375 592.765625 727.96875 593.425781 C 716.667969 593.878906 710.339844 591.644531 701.699219 584.242188 C 696.789062 578.34375 696.722656 571.609375 696.84375 564.183594 C 697.746094 557.484375 700.65625 553.679688 705.0625 548.695312 C 714.386719 541.972656 723.113281 541.574219 733.882812 544.851562 Z M 1018.253906 571.75 C 1020.476562 578.367188 1019.824219 583 1018.375 589.765625 C 1015.140625 606.75 1016.816406 614.734375 1025.941406 629.394531 C 1023.152344 632.929688 1020.347656 636.449219 1017.535156 639.960938 C 1015.972656 641.925781 1014.414062 643.886719 1012.804688 645.90625 C 1011.433594 647.433594 1010.0625 648.957031 1008.648438 650.53125 L 1004.804688 650.53125 C 1000.710938 645.730469 997.4375 640.316406 993.996094 635.039062 C 993.007812 633.59375 992.007812 632.136719 990.996094 630.660156 C 986.71875 624.125 983.875 618.707031 982.011719 611.074219 C 984.632812 600.550781 991.882812 595.269531 999.882812 588.324219 C 1001.421875 586.9375 1002.964844 585.546875 1004.554688 584.117188 C 1007.394531 581.5625 1010.25 579.023438 1013.121094 576.503906 C 1014.871094 574.964844 1016.609375 573.402344 1018.257812 571.753906 Z M 849.167969 615.945312 C 843.78125 624.351562 844.105469 633.1875 845.328125 642.84375 C 848.808594 650.210938 851.667969 653.476562 858.414062 657.976562 C 865.605469 660.511719 870.414062 661.085938 877.992188 660.136719 C 886.867188 655.1875 893.949219 650.6875 897.207031 640.921875 C 898.171875 629.160156 897.375 623.40625 889.519531 614.023438 C 883.765625 607.84375 877.296875 606.644531 869.128906 605.953125 C 861.121094 606.625 854.972656 610.53125 849.167969 615.945312 Z M 879.914062 581.359375 L 881.835938 592.886719 C 885.496094 593.765625 889.335938 594.40625 893.363281 594.808594 C 895.265625 593.539062 897.167969 592.273438 899.125 590.964844 C 903.800781 591.402344 906.265625 592.46875 909.988281 595.328125 C 911.714844 597.542969 912.578125 600.035156 912.585938 602.796875 C 912.304688 604.28125 912.027344 605.769531 911.738281 607.300781 C 910.765625 612.339844 911.6875 617.144531 914.5 621.710938 C 917.769531 623.253906 920.972656 624.535156 924.105469 625.554688 L 924.105469 640.925781 C 919.667969 642.191406 915.230469 643.460938 910.65625 644.769531 C 910.507812 651.042969 910.988281 657.246094 912.097656 663.382812 C 912.417969 666.34375 911.699219 669.347656 909.9375 672.390625 C 902.316406 677.105469 896.105469 675.03125 887.601562 673.589844 L 881.835938 673.589844 C 881.558594 675.453125 881.28125 677.316406 880.996094 679.234375 C 880.273438 683.160156 879.273438 685.761719 877.992188 687.042969 C 873.589844 687.28125 869.105469 687.28125 864.542969 687.042969 C 861.980469 684.480469 860.539062 681.917969 860.21875 679.355469 C 859.4375 676.382812 857.195312 674.21875 853.496094 672.871094 C 846.578125 671.539062 843.765625 672.269531 837.644531 675.511719 C 834.363281 672.628906 831.160156 669.429688 828.035156 665.90625 C 828.195312 663.183594 828.835938 660.621094 829.957031 658.21875 C 831.523438 653.597656 831.523438 649.113281 829.957031 644.769531 C 826.121094 643.097656 822.277344 641.816406 818.429688 640.925781 L 818.429688 625.554688 C 820.289062 624.800781 822.15625 624.050781 824.074219 623.273438 C 828.175781 621.371094 830.777344 618.6875 831.878906 615.226562 C 831.878906 609.476562 830.535156 605.714844 828.035156 600.574219 C 831.207031 597.40625 834.375 594.234375 837.644531 590.96875 C 839.703125 591.679688 841.765625 592.394531 843.886719 593.128906 C 848.386719 594.558594 852.269531 594.761719 855.535156 593.730469 C 857.972656 591.945312 859.695312 589.386719 860.699219 586.042969 C 861.980469 582.921875 863.78125 580.800781 866.101562 579.679688 C 871.011719 579.398438 875.15625 580.171875 879.914062 581.359375 Z M 794.53125 581.839844 C 797.652344 582.800781 800.496094 584.5625 803.058594 587.125 C 804.269531 598.988281 801.054688 609.128906 797.535156 620.386719 C 797.015625 622.128906 796.496094 623.867188 795.964844 625.660156 C 793.351562 634.210938 790.589844 639.9375 787.6875 642.84375 C 778.539062 642.652344 772.269531 640.179688 764.148438 636.003906 C 762.433594 635.128906 760.722656 634.253906 758.957031 633.351562 C 757.65625 632.679688 756.359375 632.003906 755.023438 631.3125 C 755.035156 632.976562 755.046875 634.640625 755.058594 636.355469 C 755.175781 652.042969 755.265625 667.734375 755.320312 683.425781 C 755.351562 691.492188 755.390625 699.558594 755.457031 707.625 C 755.519531 715.410156 755.554688 723.195312 755.566406 730.980469 C 755.578125 733.949219 755.597656 736.917969 755.632812 739.886719 C 755.671875 744.050781 755.679688 748.210938 755.675781 752.375 C 755.6875 754.742188 755.699219 757.113281 755.714844 759.550781 C 754.953125 766.425781 753.542969 770.03125 749.253906 775.421875 C 744.851562 776.78125 740.367188 777.421875 735.804688 777.34375 C 732.992188 775.507812 730.429688 772.945312 728.121094 769.65625 C 727.066406 763.792969 727.226562 758.035156 727.367188 752.09375 C 727.378906 750.398438 727.390625 748.703125 727.402344 746.957031 C 727.445312 741.550781 727.542969 736.152344 727.636719 730.746094 C 727.675781 727.078125 727.710938 723.410156 727.742188 719.742188 C 727.828125 710.761719 727.960938 701.78125 728.117188 692.800781 L 718.511719 692.800781 C 718.5625 695.019531 718.609375 697.238281 718.664062 699.527344 C 718.835938 707.78125 718.945312 716.035156 719.039062 724.289062 C 719.085938 727.859375 719.152344 731.425781 719.234375 734.992188 C 719.351562 740.132812 719.40625 745.265625 719.449219 750.402344 C 719.5 751.992188 719.546875 753.582031 719.597656 755.222656 C 719.601562 763.5 719.222656 766.785156 714.089844 773.621094 C 710.632812 776.101562 706.539062 777.339844 701.816406 777.339844 C 697.574219 776.058594 694.171875 773.496094 691.609375 769.65625 C 691.253906 765.835938 691.050781 761.5625 691 756.828125 C 690.980469 755.535156 690.960938 754.242188 690.941406 752.90625 C 690.882812 748.632812 690.847656 744.363281 690.816406 740.089844 C 690.777344 737.125 690.742188 734.164062 690.703125 731.199219 C 690.605469 723.398438 690.527344 715.597656 690.457031 707.800781 C 690.378906 699.839844 690.28125 691.882812 690.183594 683.921875 C 690 668.308594 689.835938 652.691406 689.691406 637.078125 C 685.074219 641.679688 681.695312 646.894531 679.550781 652.726562 C 679.855469 653.964844 680.160156 655.199219 680.472656 656.46875 C 680.773438 657.855469 681.070312 659.238281 681.382812 660.664062 C 681.746094 662.074219 682.109375 663.484375 682.484375 664.9375 C 684.839844 674.867188 686.621094 682.644531 683.925781 692.796875 C 682.644531 694.078125 680.164062 694.960938 676.480469 695.441406 C 672.476562 694.960938 669.5 693.523438 667.554688 691.132812 C 663.554688 682.664062 661.460938 674.023438 659.304688 664.9375 C 658.839844 663.136719 658.378906 661.335938 657.898438 659.480469 C 655.820312 650.832031 655.210938 644.1875 656.066406 639.546875 C 660.28125 633.121094 665.054688 627.355469 670.113281 621.582031 C 671.117188 620.410156 672.128906 619.222656 673.148438 618.023438 C 684.089844 605.390625 693.222656 598.808594 700.554688 598.273438 C 707.539062 598.109375 714.523438 598.003906 721.511719 597.925781 C 723.914062 597.855469 726.320312 597.78125 728.796875 597.707031 C 744.082031 597.5625 754.070312 599.339844 766.542969 608.253906 C 768.488281 609.402344 770.429688 610.550781 772.429688 611.734375 C 773.65625 612.488281 774.886719 613.242188 776.152344 614.015625 C 776.351562 612.113281 776.550781 610.195312 776.75 608.253906 C 777.910156 600.230469 779.980469 592.363281 783.835938 585.195312 C 787.679688 582.632812 791.242188 581.511719 794.523438 581.832031 Z M 472.570312 629.394531 C 484.234375 637.113281 492.5625 642.878906 497.550781 646.6875 C 496.511719 658.710938 494.929688 668.519531 486.019531 677.429688 C 481.980469 678.664062 477.886719 679.722656 473.769531 680.671875 C 471.578125 681.195312 469.359375 681.722656 467.121094 682.257812 C 461.101562 683.183594 456.511719 682.859375 453.355469 681.273438 C 450.613281 678.066406 447.890625 674.503906 445.191406 670.585938 C 443.832031 668.640625 442.476562 666.695312 441.078125 664.695312 C 440.054688 663.191406 439.035156 661.6875 437.984375 660.140625 C 443.125 654.996094 447.492188 654.699219 454.558594 653.175781 C 456.839844 652.671875 459.148438 652.167969 461.476562 651.65625 C 463.234375 651.289062 464.996094 650.914062 466.804688 650.53125 C 468.707031 643.558594 470.609375 636.582031 472.570312 629.394531 Z M 472.570312 629.394531 " fill-opacity="1" fill-rule="nonzero"/></g></svg>